<svg width="179" height="67" viewBox="0 0 179 67" fill="none" xmlns="http://www.w3.org/2000/svg">
<path d="M64.5814 7.28152C62.2691 7.28152 60.0088 7.96719 58.0862 9.25181C56.1636 10.5364 54.6652 12.3623 53.7803 14.4986C52.8954 16.6348 52.6639 18.9855 53.115 21.2533C53.5661 23.5211 54.6796 25.6043 56.3146 27.2393C57.9496 28.8743 60.0327 29.9878 62.3006 30.4389C64.5684 30.89 66.9191 30.6584 69.0553 29.7736C71.1916 28.8887 73.0175 27.3902 74.3021 25.4677C75.5867 23.5451 76.2724 21.2848 76.2724 18.9725C76.2724 15.8719 75.0406 12.8982 72.8481 10.7057C70.6557 8.51325 67.682 7.28152 64.5814 7.28152ZM64.5814 27.7615C62.8431 27.7615 61.1438 27.2461 59.6985 26.2803C58.2531 25.3146 57.1266 23.9419 56.4614 22.3359C55.7962 20.7299 55.6221 18.9628 55.9612 17.2579C56.3004 15.553 57.1374 13.9869 58.3666 12.7577C59.5958 11.5286 61.1618 10.6915 62.8667 10.3524C64.5716 10.0133 66.3388 10.1873 67.9448 10.8525C69.5508 11.5177 70.9234 12.6443 71.8892 14.0896C72.8549 15.5349 73.3704 17.2342 73.3704 18.9725C73.3704 21.3035 72.4444 23.539 70.7961 25.1873C69.1479 26.8355 66.9124 27.7615 64.5814 27.7615Z" fill="#2D9874"/>
<path d="M63.3147 22.2431C63.1504 22.0796 63.0167 21.8879 62.9202 21.6772C62.8682 21.5566 62.782 21.4539 62.6721 21.3819C62.5623 21.3099 62.4337 21.2718 62.3024 21.2723H61.4095C61.3574 21.272 61.3058 21.2827 61.2581 21.3037C61.2105 21.3248 61.1678 21.3557 61.133 21.3945C61.0981 21.4332 61.0719 21.4789 61.056 21.5286C61.0402 21.5782 61.035 21.6306 61.0409 21.6824C61.1401 22.4209 61.5102 23.0962 62.0791 23.5773C62.4711 23.8796 62.9168 24.1051 63.3926 24.2418C63.4693 24.2634 63.5368 24.3097 63.5847 24.3735C63.6325 24.4373 63.658 24.515 63.6573 24.5948V25.5084C63.6573 25.6062 63.6962 25.7 63.7653 25.7691C63.8344 25.8382 63.9282 25.877 64.0259 25.877H65.1005C65.1494 25.8777 65.1979 25.8687 65.2432 25.8505C65.2885 25.8323 65.3297 25.8052 65.3645 25.7709C65.3993 25.7366 65.4269 25.6958 65.4458 25.6507C65.4646 25.6056 65.4743 25.5573 65.4743 25.5084V24.5948C65.4733 24.5157 65.4981 24.4384 65.5449 24.3747C65.5918 24.311 65.6581 24.2643 65.7339 24.2418C66.2101 24.1061 66.6559 23.8806 67.0473 23.5773C67.3883 23.2983 67.6631 22.947 67.8518 22.5488C68.0405 22.1506 68.1384 21.7155 68.1384 21.2749C68.1384 20.8343 68.0405 20.3991 67.8518 20.001C67.6631 19.6028 67.3883 19.2515 67.0473 18.9725C66.3791 18.3905 65.5136 18.0859 64.6281 18.1211C64.3847 18.1342 64.1412 18.0983 63.912 18.0153C63.6827 17.9324 63.4726 17.8042 63.2939 17.6383C63.0157 17.3871 62.8416 17.0407 62.8059 16.6675C62.7967 16.4781 62.8369 16.2895 62.9224 16.1203C63.0079 15.951 63.136 15.8069 63.2939 15.7019C63.6524 15.4075 64.1019 15.2465 64.5658 15.2465C65.0297 15.2465 65.4792 15.4075 65.8377 15.7019C66.0032 15.8644 66.137 16.0563 66.2323 16.2678C66.2841 16.387 66.3697 16.4885 66.4786 16.5595C66.5875 16.6306 66.7148 16.6681 66.8448 16.6675H67.364C67.4645 16.6684 67.5639 16.6461 67.6545 16.6024C67.745 16.5586 67.8242 16.4946 67.886 16.4153C67.9478 16.3359 67.9904 16.2434 68.0106 16.1449C68.0308 16.0464 68.0281 15.9445 68.0025 15.8473C67.8351 15.2664 67.4946 14.7503 67.0265 14.3677C66.6364 14.0624 66.1902 13.8367 65.7131 13.7033C65.6369 13.6797 65.5704 13.632 65.5236 13.5674C65.4768 13.5028 65.4522 13.4248 65.4535 13.345V12.7636C65.4535 12.5777 65.3797 12.3995 65.2483 12.268C65.1168 12.1366 64.9386 12.0628 64.7527 12.0628H64.3685C64.1739 12.0641 63.9878 12.1424 63.8506 12.2805C63.7135 12.4186 63.6366 12.6053 63.6366 12.8V13.345C63.6376 13.4255 63.6122 13.504 63.5644 13.5687C63.5166 13.6333 63.449 13.6806 63.3718 13.7033C62.8952 13.8378 62.4491 14.0634 62.0584 14.3677C61.7173 14.6467 61.4425 14.998 61.2538 15.3962C61.0651 15.7944 60.9672 16.2295 60.9672 16.6701C60.9672 17.1107 61.0651 17.5459 61.2538 17.944C61.4425 18.3422 61.7173 18.6935 62.0584 18.9725C62.7309 19.5503 63.5968 19.8525 64.4828 19.8187C64.7266 19.8054 64.9706 19.8417 65.2 19.9256C65.4293 20.0095 65.6392 20.1392 65.8169 20.3067C66.0946 20.5556 66.2672 20.9008 66.2997 21.2723C66.3094 21.4619 66.27 21.6509 66.1855 21.8209C66.1009 21.9909 65.974 22.1363 65.8169 22.2431C65.4585 22.5375 65.0089 22.6985 64.5451 22.6985C64.0812 22.6985 63.6316 22.5375 63.2732 22.2431" fill="#59205B"/>
<path d="M38.3857 24.9011C38.3857 23.2918 37.7091 21.3883 36.3558 19.1906C35.0662 17.042 33.3677 15.1671 31.3566 13.6721C29.4427 12.2705 27.7122 11.5246 26.1652 11.4346C24.9192 11.3827 23.7719 11.9538 22.7337 13.1478C21.2662 14.7987 20.1605 17.6764 19.4164 21.7811C18.8596 24.7913 18.5471 27.8417 18.4819 30.9023L31.5019 29.8121L32.4364 41.1968L18.7934 42.287C19.2376 49.7089 20.2547 57.0853 21.8356 64.3504L10.6845 66.7696C9.00094 59.0141 7.90762 51.1422 7.41391 43.2215L1.64109 43.6887L0.727409 32.3092L7.12319 31.842C7.17778 27.8174 7.54225 23.8029 8.21338 19.8343C9.30357 13.6462 11.278 8.9151 14.1367 5.64107C17.5181 1.69562 21.6764 -0.180199 26.6116 0.0136122C30.5121 0.221267 34.3589 1.7285 38.1521 4.5353C41.5699 7.06977 44.4233 10.2873 46.531 13.9836C48.6906 17.7249 49.7704 21.3588 49.7704 24.8855L38.3857 24.9011Z" fill="#59205B"/>
<path d="M66.9227 33.6226L65.8273 62.9487L54.4478 62.7203L55.538 33.3942L66.9227 33.6226Z" fill="#59205B"/>
<path d="M87.7193 25.2904C90.3324 24.2921 93.1089 23.7903 95.9061 23.8109C99.7772 23.7916 103.593 24.7278 107.016 26.5364C110.361 28.2526 113.158 30.8732 115.088 34.1002C116.544 36.5248 117.548 39.193 118.053 41.9755C118.554 44.4923 118.817 47.051 118.836 49.6173C118.883 50.7594 118.883 52.4517 118.836 54.684V57.4147H107.447V54.5231C107.499 52.4466 107.499 50.8891 107.447 49.8509C107.343 45.4313 106.64 42.1296 105.339 39.9457C104.399 38.4392 103.046 37.2353 101.44 36.4779C99.7223 35.6197 97.8264 35.1786 95.9061 35.1904C94.0869 35.1537 92.2887 35.5845 90.6836 36.4415C89.5892 37.0155 88.6721 37.877 88.0308 38.9334L88.4981 61.1525L77.1185 61.3913L76.2568 21.3917L87.6415 21.1581L87.7193 25.2904Z" fill="#59205B"/>
<path d="M125.492 8.21598L159.174 4.00577L160.575 15.079L160.736 15.2347L136.487 50.2402L160.97 49.9287L161.125 61.3134L122.605 61.7806L122.45 50.3959H122.761L122.605 50.2402L145.453 17.2594L126.894 19.5228L125.492 8.21598Z" fill="#2D9874"/>
<path d="M167.438 6.26923C167.98 5.72488 168.624 5.29292 169.333 4.99818C170.042 4.70343 170.803 4.5517 171.571 4.5517C172.338 4.5517 173.099 4.70343 173.808 4.99818C174.517 5.29292 175.161 5.72488 175.703 6.26923C176.258 6.80672 176.697 7.45287 176.992 8.16741C177.287 8.88194 177.431 9.64954 177.416 10.4223C177.431 11.1951 177.287 11.9627 176.992 12.6773C176.697 13.3918 176.258 14.0379 175.703 14.5754C175.161 15.1198 174.517 15.5517 173.808 15.8465C173.099 16.1412 172.338 16.293 171.571 16.293C170.803 16.293 170.042 16.1412 169.333 15.8465C168.624 15.5517 167.98 15.1198 167.438 14.5754C166.883 14.0379 166.444 13.3918 166.149 12.6773C165.854 11.9627 165.71 11.1951 165.725 10.4223C165.714 9.65388 165.86 8.89124 166.154 8.18142C166.449 7.47161 166.886 6.82967 167.438 6.29518V6.26923ZM178.273 23.1879L177.177 62.9487L165.798 62.6372L166.888 22.8713L178.273 23.1879Z" fill="#2D9874"/>
</svg>
