<svg width="81" height="81" viewBox="0 0 81 81" fill="none" xmlns="http://www.w3.org/2000/svg">
<path d="M40.14 80.28C62.3087 80.28 80.28 62.3087 80.28 40.14C80.28 17.9713 62.3087 0 40.14 0C17.9713 0 0 17.9713 0 40.14C0 62.3087 17.9713 80.28 40.14 80.28Z" fill="white"/>
<path d="M40.1401 78.5665C61.3625 78.5665 78.5666 61.3624 78.5666 40.14C78.5666 18.9176 61.3625 1.71344 40.1401 1.71344C18.9177 1.71344 1.7135 18.9176 1.7135 40.14C1.7135 61.3624 18.9177 78.5665 40.1401 78.5665Z" fill="#F7DA00"/>
<path style="mix-blend-mode:overlay" d="M66.9802 26.6296C68.84 24.5496 66.8197 19.709 62.4676 15.8178C58.1156 11.9267 53.08 10.4585 51.2202 12.5385C49.3604 14.6186 51.3808 19.4592 55.7328 23.3503C60.0848 27.2415 65.1205 28.7097 66.9802 26.6296Z" fill="url(#paint0_linear)"/>
<path style="mix-blend-mode:overlay" d="M73.0759 33.261C74.1287 32.0835 73.9898 30.2417 72.7656 29.1472C71.5414 28.0526 69.6956 28.1199 68.6428 29.2974C67.59 30.4748 67.729 32.3167 68.9531 33.4112C70.1773 34.5057 72.0231 34.4385 73.0759 33.261Z" fill="url(#paint1_linear)"/>
<path d="M62.1376 68.4749C55.7133 73.4588 47.7867 76.113 39.6566 76.0027C31.5264 75.8924 23.6748 73.024 17.3881 67.8676C11.1014 62.7112 6.75245 55.5724 5.05372 47.621C3.35498 39.6695 4.40723 31.3768 8.03805 24.1016C7.36541 27.736 7.20426 31.4466 7.55929 35.1256C8.07775 40.3672 9.62465 45.4551 12.1115 50.0981C14.5983 54.7412 17.9763 58.8484 22.0521 62.1846C26.1278 65.5208 30.8215 68.0206 35.8644 69.541C40.9073 71.0614 46.2005 71.5725 51.4412 71.045C55.109 70.691 58.7093 69.8259 62.1376 68.4749Z" fill="#F8CF00"/>
<path d="M50.7861 27.7175L42.9118 28.7254C42.6303 27.7368 42.2059 26.7945 41.652 25.9285C40.7525 24.4523 39.5709 23.168 38.1747 22.1488C37.1397 21.2892 35.8809 20.7429 34.5462 20.574C34.0825 20.571 33.6245 20.6766 33.2089 20.8822C32.7932 21.0879 32.4314 21.3879 32.1524 21.7583C30.8895 23.5422 30.1044 25.6198 29.872 27.7931C29.7082 28.6372 29.5696 29.5444 29.4689 30.5019C29.3681 31.4594 29.2673 32.8453 29.2169 34.1429L29.3429 38.477L29.4437 42.0676C29.7443 47.2347 30.452 52.3699 31.5603 57.4257L23.7994 59.1139C22.6245 53.7198 21.858 48.2448 21.5064 42.7354C21.5064 42.7354 21.5064 41.1353 21.4308 39.5227C21.3552 37.91 21.33 36.1966 21.2922 36.247C21.2349 34.6612 21.298 33.0734 21.4812 31.4972C21.6072 30.0483 21.7835 28.3349 22.0607 26.3946C22.4408 22.7707 23.8729 19.3371 26.1805 16.5171C27.2117 15.2177 28.539 14.184 30.0513 13.5023C31.5637 12.8207 33.2172 12.5109 34.8738 12.5989C37.802 12.83 40.5954 13.9264 42.8992 15.7486C45.2798 17.515 47.27 19.754 48.7451 22.3252C49.7409 23.9869 50.4321 25.813 50.7861 27.7175Z" fill="#E68D00"/>
<path d="M14.4382 35.3272L59.58 29.5065L60.5501 37.2171L60.6635 37.3304L44.4991 57.728L60.8273 57.5138L60.9281 65.4385L34.1177 65.7661L34.0043 57.8414H34.2185L34.1177 57.728L49.2993 38.7415L15.4083 43.2015L14.4382 35.3272Z" fill="#E68D00"/>
<path d="M52.046 26.4576L44.1717 27.4655C43.8902 26.4769 43.4657 25.5346 42.9118 24.6686C42.0124 23.1925 40.8308 21.9081 39.4346 20.8889C38.3996 20.0293 37.1408 19.483 35.8061 19.3141C35.3424 19.3111 34.8844 19.4167 34.4687 19.6223C34.0531 19.828 33.6913 20.128 33.4123 20.4984C32.1494 22.2823 31.3643 24.3599 31.1319 26.5332C30.9681 27.3774 30.8295 28.2845 30.7287 29.242C30.6279 30.1995 30.5272 31.5854 30.4768 32.8831L30.6028 37.2171L30.7035 40.8077C31.0042 45.9748 31.7119 51.11 32.8202 56.1658L25.0592 57.854C23.8843 52.4599 23.1178 46.9849 22.7663 41.4755C22.7663 41.4755 22.7663 39.8754 22.6907 38.2628C22.6151 36.6501 22.5899 34.9367 22.5521 34.9871C22.4948 33.4013 22.5579 31.8135 22.7411 30.2373C22.867 28.7884 23.0434 27.075 23.3206 25.1348C23.7006 21.5108 25.1328 18.0772 27.4404 15.2572C28.4716 13.9578 29.7989 12.9241 31.3112 12.2424C32.8236 11.5608 34.4771 11.251 36.1337 11.339C39.0619 11.5702 41.8553 12.6665 44.1591 14.4887C46.5397 16.2551 48.5299 18.4941 50.005 21.0653C51.0008 22.727 51.692 24.5531 52.046 26.4576Z" fill="#FFFF00"/>
<path d="M15.6981 34.0673L60.8399 28.2467L61.81 35.9572L61.9234 36.0706L45.759 56.4681L62.0872 56.2539L62.188 64.1786L35.3776 64.5062L35.2642 56.5815H35.4783L35.3776 56.4681L50.5592 37.4816L16.6682 41.9416L15.6981 34.0673Z" fill="#FFFF00"/>
<g style="mix-blend-mode:hard-light" opacity="0.5">
<g style="mix-blend-mode:hard-light" opacity="0.5">
<path d="M30.6909 40.8078V40.0896L29.431 40.266V41.3495V42.0676C29.7296 46.9111 30.3695 51.7274 31.3461 56.4807L32.7571 56.1658C31.6904 51.231 30.9913 46.2239 30.6657 41.1857C30.7035 41.0597 30.7035 40.9337 30.6909 40.8078Z" fill="white"/>
</g>
<g style="mix-blend-mode:hard-light" opacity="0.5">
<path d="M42.8991 15.7864C45.276 17.548 47.2622 19.783 48.7324 22.3504C49.5291 23.7025 50.1394 25.1562 50.5466 26.6718L52.0459 26.4576C51.6791 24.5548 50.9842 22.7301 49.9923 21.0653C48.5221 18.4979 46.5359 16.2629 44.159 14.5013C41.8521 12.6742 39.0544 11.5736 36.1209 11.339C34.4963 11.2508 32.8737 11.5471 31.3851 12.2038C29.8965 12.8606 28.5838 13.8592 27.5537 15.1186C29.5635 13.3507 32.1887 12.4454 34.8611 12.5989C37.7972 12.8407 40.5952 13.9503 42.8991 15.7864Z" fill="white"/>
</g>
<g style="mix-blend-mode:hard-light" opacity="0.5">
<path d="M15.6855 34.0169L15.8241 35.1005L21.2794 34.3949L22.5393 34.2311C22.5393 33.9414 22.5393 33.576 22.5393 33.135L21.3424 33.2862L15.6855 34.0169Z" fill="white"/>
</g>
<g style="mix-blend-mode:hard-light" opacity="0.5">
<path d="M62.0746 56.2413L45.6961 56.4555L61.9108 36.058L61.81 35.9572L60.8273 28.2467L30.5018 32.1523C30.5018 31.1318 30.6278 30.1617 30.7286 29.2294C30.8294 28.2971 30.968 27.3647 31.1318 26.5206C31.373 24.5586 32.0255 22.6696 33.0468 20.9771C32.7106 21.1904 32.4089 21.4538 32.1523 21.7582C30.8833 23.5342 30.0975 25.6094 29.8719 27.7805C29.7081 28.6246 29.5695 29.5317 29.4687 30.4893C29.4057 31.0814 29.3427 31.6862 29.3049 32.3161C29.3049 32.6815 29.3049 33.0342 29.2419 33.4122L30.5018 33.261L59.58 29.4813L60.5627 37.1919L60.6635 37.2926L44.4992 57.7154L60.8777 57.5012L60.9785 64.1786H62.2384L62.0746 56.2413Z" fill="white"/>
</g>
</g>
<defs>
<linearGradient id="paint0_linear" x1="68.2054" y1="24.1252" x2="49.1059" y2="14.6197" gradientUnits="userSpaceOnUse">
<stop stop-color="#83ECEC"/>
<stop offset="1" stop-color="#8EE2D3" stop-opacity="0.3"/>
</linearGradient>
<linearGradient id="paint1_linear" x1="-1112.86" y1="-2931.88" x2="-1137.16" y2="-2948.08" gradientUnits="userSpaceOnUse">
<stop stop-color="#83ECEC"/>
<stop offset="1" stop-color="#8EE2D3" stop-opacity="0.3"/>
</linearGradient>
</defs>
</svg>
