<svg width="159" height="240" viewBox="0 0 159 240" fill="none" xmlns="http://www.w3.org/2000/svg">
<path d="M80.5451 130.488C78.6633 133.196 76.8989 135.826 75.0532 138.299C73.2075 140.772 71.3438 143.119 69.4575 145.326C65.6849 149.744 61.9033 153.665 58.3202 157.338C56.5151 159.143 54.7101 160.894 53.0133 162.582C51.3165 164.27 49.6874 165.94 48.1937 167.596C47.4401 168.426 46.7316 169.252 46.0547 170.087C45.3778 170.922 44.7461 171.765 44.1775 172.618C43.0251 174.258 42.0481 176.014 41.2623 177.858C40.4982 179.671 39.9484 181.567 39.6242 183.507C39.2953 185.531 39.1744 187.583 39.2632 189.631C39.3764 191.794 39.6555 193.946 40.098 196.066C40.5764 198.282 41.1714 200.47 41.8805 202.623C42.6025 204.794 43.4509 206.964 44.3625 209.112C45.274 211.26 46.2894 213.395 47.395 215.493C49.5933 219.736 52.0233 223.855 54.674 227.831L45.432 233.675C42.8462 229.352 40.274 224.992 37.8868 220.484L36.9843 218.797L36.1043 217.064C35.5041 215.931 34.9626 214.758 34.3985 213.602C33.3155 211.251 32.2324 208.891 31.2983 206.427C30.3218 203.947 29.4723 201.418 28.7531 198.85C27.9945 196.189 27.4394 193.473 27.0925 190.728C26.708 187.874 26.6157 184.989 26.8172 182.117C27.0087 179.159 27.534 176.231 28.3831 173.39C29.2331 170.582 30.3498 167.862 31.718 165.267C33.0399 162.816 34.5046 160.444 36.1043 158.164C37.6341 155.935 39.209 153.855 40.7433 151.846C42.2776 149.838 43.7578 147.889 45.1612 145.98C46.5477 144.151 47.8342 142.248 49.0151 140.28C50.1109 138.416 51.0281 136.451 51.7542 134.414C52.4498 132.478 52.9045 130.464 53.1081 128.417C53.3187 126.397 53.1828 124.357 52.7064 122.383L80.5451 130.488Z" fill="#5F205A"/>
<path d="M108.33 121.846L108.253 122.523C108.246 122.622 108.229 122.72 108.203 122.816L108.149 123.087L107.955 124.139L107.594 126.133C107.396 127.442 107.174 128.683 107.03 129.924C106.886 131.165 106.732 132.37 106.619 133.575C106.507 134.779 106.434 135.966 106.362 137.14C106.29 138.313 106.254 139.486 106.249 140.641C106.245 141.797 106.209 142.952 106.249 144.094C106.294 146.382 106.421 148.642 106.534 150.899C106.646 153.155 106.728 155.411 106.791 157.668L106.922 161.039L106.98 164.405L107.044 167.767C107.089 168.886 107.093 170.024 107.093 171.125C107.093 173.381 107.093 175.597 107.147 177.826L107.098 184.514C107.098 185.628 107.098 186.743 107.098 187.853L107.021 191.188C106.985 193.413 106.976 195.633 106.926 197.853L106.737 204.505L106.683 207.831L106.552 211.152C106.475 213.368 106.403 215.579 106.358 217.795C106.231 222.222 106.001 226.644 106.024 231.085L95.112 230.403C95.3331 228.251 95.4956 226.098 95.64 223.941C95.7182 222.867 95.7844 221.79 95.8386 220.71L95.9333 219.09C95.9604 218.553 95.9559 218.011 95.9694 217.474C96.0191 215.313 96.0416 213.151 96.0552 210.994C96.0552 209.916 96.0552 208.833 96.0552 207.754L95.9604 204.518L95.6716 198.034C95.5272 195.881 95.3512 193.729 95.1887 191.581C94.8774 187.275 94.2862 183.006 93.7763 178.728C93.4694 176.598 93.1129 174.473 92.779 172.348C92.445 170.222 92.0434 168.115 91.6328 166.003L91.019 162.844L90.3331 159.685C89.8548 157.591 89.3854 155.506 88.8394 153.439C88.5777 152.406 88.325 151.373 88.0497 150.339C87.9188 149.825 87.7609 149.315 87.5984 148.805C87.436 148.295 87.2735 147.785 87.102 147.28C86.7545 146.269 86.389 145.258 85.9829 144.265C85.5767 143.272 85.1164 142.293 84.6291 141.318C84.1417 140.344 83.6363 139.387 83.0812 138.448C82.5262 137.51 81.9485 136.571 81.2762 135.687C80.6409 134.781 79.9523 133.915 79.2139 133.092C78.8393 132.69 78.4557 132.252 78.0541 131.9C77.8556 131.72 77.648 131.544 77.4404 131.368L77.2824 131.237C77.2368 131.194 77.1831 131.16 77.1245 131.138L76.8267 131.025L108.33 121.846Z" fill="#5F205A"/>
<path d="M78.2526 142.424C82.0689 142.379 85.7756 143.699 88.7039 146.147C88.7491 145.696 88.7761 145.204 88.7761 144.716C88.7761 137.789 84.0649 132.171 78.2526 132.171C72.4402 132.171 67.729 137.789 67.729 144.716C67.729 145.204 67.7561 145.678 67.8012 146.147C70.7295 143.699 74.4363 142.379 78.2526 142.424Z" fill="#5F205A"/>
<path d="M110.333 201.671C110.279 202.366 108.925 227.294 108.506 235.8C108.465 236.654 108.132 237.468 107.563 238.105C106.993 238.743 106.222 239.165 105.378 239.302H87.4811C86.4746 239.377 85.4769 239.069 84.6878 238.44C83.8987 237.811 83.3764 236.907 83.2256 235.909C83.1445 235.374 83.1722 234.829 83.307 234.306C83.4418 233.782 83.681 233.292 84.0101 232.863C84.3393 232.434 84.7517 232.077 85.2225 231.811C85.6933 231.546 86.2129 231.379 86.75 231.319L91.9306 230.751C92.8359 230.653 93.6718 230.22 94.2739 229.536C94.876 228.853 95.2007 227.97 95.1842 227.059C95.0669 219.839 94.5976 203.625 94.6246 201.68C99.4532 201.599 105.645 201.906 110.333 201.671Z" fill="#00755B"/>
<path d="M106.953 201.757C104.76 201.982 102.472 202.23 100.315 202.402C99.2551 202.49 98.2688 202.98 97.5576 203.771C96.8464 204.562 96.464 205.594 96.4883 206.657C96.6192 212.434 96.8945 222.668 96.9847 227.993C96.9991 228.904 96.673 229.787 96.0704 230.47C95.4677 231.153 94.6319 231.586 93.7266 231.685L88.546 232.253C87.7761 232.334 87.0461 232.637 86.4446 233.124C85.843 233.612 85.3958 234.263 85.157 234.999C84.9182 235.736 84.8981 236.526 85.0991 237.274C85.3002 238.021 85.7137 238.694 86.2897 239.212C85.5075 239.031 84.7976 238.62 84.2521 238.031C83.7066 237.442 83.3505 236.702 83.2301 235.909C83.1993 235.707 83.1843 235.503 83.185 235.299C83.1868 234.314 83.5519 233.363 84.2104 232.63C84.869 231.896 85.7747 231.431 86.7545 231.324L91.935 230.755C92.8403 230.655 93.6757 230.221 94.2775 229.537C94.8794 228.854 95.2043 227.97 95.1887 227.059C95.0713 219.839 94.6065 203.629 94.6291 201.68C98.3791 201.617 102.892 201.788 106.953 201.757Z" fill="#00664E"/>
<path d="M110.333 201.671C110.284 202.366 108.925 227.298 108.506 235.805C108.465 236.657 108.132 237.47 107.564 238.107C106.995 238.743 106.225 239.165 105.383 239.302H102.743C103.585 239.165 104.355 238.743 104.924 238.107C105.493 237.47 105.825 236.657 105.866 235.805C106.276 227.488 107.585 203.462 107.671 201.752C108.609 201.721 109.494 201.721 110.333 201.671Z" fill="#008467"/>
<path d="M41.7541 194.92C42.0113 195.565 51.7406 218.562 55.1026 226.387C55.4391 227.171 55.4963 228.047 55.2647 228.868C55.0331 229.69 54.5266 230.407 53.83 230.9L37.7513 238.765C36.8798 239.274 35.8482 239.436 34.8626 239.218C33.8771 238.999 33.0102 238.417 32.4354 237.587C32.1277 237.143 31.9129 236.641 31.804 236.111C31.6952 235.582 31.6945 235.036 31.802 234.506C31.9094 233.976 32.1229 233.473 32.4295 233.028C32.7361 232.583 33.1295 232.204 33.5861 231.915L37.995 229.131C38.7639 228.643 39.3233 227.886 39.5636 227.008C39.804 226.13 39.7081 225.194 39.2947 224.383C36.0185 217.957 28.4643 203.589 27.6429 201.82C31.9435 199.636 37.643 197.208 41.7541 194.92Z" fill="#00755B"/>
<path d="M39.5203 230.277L35.1159 233.061C33.6087 234.013 32.6881 236.342 32.9724 238.21C32.7712 238.023 32.5911 237.814 32.4354 237.587C32.1273 237.143 31.9124 236.641 31.8036 236.112C31.6948 235.582 31.6943 235.036 31.8023 234.507C31.9103 233.977 32.1244 233.475 32.4317 233.03C32.7391 232.585 33.1333 232.208 33.5907 231.919L37.995 229.131C38.7639 228.643 39.3233 227.886 39.5636 227.008C39.804 226.13 39.7081 225.194 39.2947 224.383C36.023 217.957 28.4643 203.589 27.6429 201.82C31.0726 200.073 35.3867 198.169 39.0736 196.314C37.2369 197.632 35.31 199.022 33.5184 200.267C32.3418 201.069 31.4994 202.273 31.1502 203.654C30.801 205.034 30.9692 206.494 31.6231 207.759C34.3443 213.002 38.5817 221.125 40.82 225.525C41.2337 226.337 41.3297 227.273 41.0894 228.152C40.849 229.031 40.2895 229.789 39.5203 230.277Z" fill="#00664E"/>
<path d="M53.8346 230.904L37.7514 238.765C37.2522 239.058 36.6952 239.238 36.1193 239.293C35.5433 239.349 34.9623 239.278 34.4165 239.086C34.6582 239.002 34.891 238.895 35.1115 238.765L51.1946 230.904C51.8898 230.41 52.3948 229.693 52.6255 228.872C52.8563 228.051 52.7988 227.175 52.4627 226.391C49.5069 219.51 41.6323 200.904 39.5925 196.071C40.3462 195.683 41.0727 195.304 41.7541 194.924C42.0113 195.574 51.7407 218.566 55.1026 226.391C55.4387 227.175 55.4962 228.051 55.2655 228.872C55.0347 229.693 54.5297 230.41 53.8346 230.904Z" fill="#008467"/>
<path d="M29.7459 97.7575C28.8163 99.6122 16.28 119.184 10.5805 113.213C3.93336 106.259 27.7287 75.1896 25.4182 70.5551C23.1077 65.9206 18.3062 62.9828 17.3811 65.2978C16.456 67.6128 21.8622 69.472 20.9326 71.3268C20.003 73.1815 10.2692 59.7337 7.94964 65.7626C5.63012 71.7916 16.2981 74.5714 14.8946 77.3557C13.4912 80.14 -9.20305 110.74 4.24022 120.944C17.6835 131.147 37.9364 107.036 37.9364 107.036L29.7459 97.7575Z" fill="#D9CEF7"/>
<path d="M9.28979 64.287C12.7826 63.1498 20.1202 72.9242 20.937 71.3267C20.9813 71.2418 21.0117 71.1504 21.0273 71.056C21.105 71.2275 21.125 71.4196 21.0843 71.6035C21.0436 71.7874 20.9444 71.9531 20.8016 72.0758C19.6464 73.213 13.1707 65.0451 9.28979 64.287Z" fill="#E8E2FA"/>
<path d="M9.4388 113.213C2.79163 106.259 26.587 75.1941 24.2765 70.5551C22.697 67.3962 19.9804 65.0406 18.1122 64.5758C19.7999 63.9846 23.4777 66.6742 25.4182 70.5551C27.7377 75.1941 3.93333 106.259 10.5805 113.213C11.1048 113.791 11.8097 114.173 12.5796 114.296C12.0073 114.395 11.4192 114.348 10.8702 114.158C10.3211 113.969 9.82872 113.644 9.4388 113.213Z" fill="#E8E2FA"/>
<path d="M37.9363 107.031C37.9363 107.031 23.7214 123.958 11.2032 123.444C23.4281 122.947 36.7946 107.031 36.7946 107.031L29.2991 98.5427C29.5157 98.1772 29.6691 97.9109 29.7503 97.7575L37.9363 107.031Z" fill="#E8E2FA"/>
<g style="mix-blend-mode:multiply" opacity="0.4">
<path style="mix-blend-mode:multiply" opacity="0.4" d="M19.9713 121.426C14.6825 123.859 9.02809 124.576 4.24466 120.944C-9.20312 110.74 13.5408 80.14 14.8946 77.3557C16.2484 74.5714 5.62102 71.7915 7.94054 65.7626C8.71221 63.7545 10.3097 63.9079 12.1328 64.9368C10.8918 70.4648 20.6392 73.1318 19.308 75.7988C17.9181 78.5831 -4.80326 109.193 8.64452 119.387C12.1283 122.022 16.0588 122.365 19.9713 121.426Z" fill="url(#paint0_linear)"/>
<path style="mix-blend-mode:multiply" opacity="0.4" d="M32.0111 100.321C27.8324 107.852 18.4731 122.018 10.5804 113.213C16.2845 119.184 28.8162 99.6122 29.7458 97.7575L32.0111 100.321Z" fill="url(#paint1_linear)"/>
</g>
<path d="M60.0214 86.4803L39.5925 113.105L25.1158 101.99L40.2243 80.4785C41.3389 79.0389 44.4978 76.5389 45.9779 77.5994L60.0214 86.4803Z" fill="#008467"/>
<g style="mix-blend-mode:multiply" opacity="0.2">
<g style="mix-blend-mode:multiply" opacity="0.2">
<path d="M43.3245 108.195L39.5699 113.087L25.1158 101.99L40.2243 80.4785C41.3389 79.0389 44.4978 76.5389 45.9779 77.5994L48.4735 79.1788L40.6169 90.3657C38.6815 93.1131 37.8826 96.5021 38.3871 99.8247C38.8917 103.147 40.6607 106.146 43.3245 108.195Z" fill="#008467"/>
</g>
</g>
<path d="M82.0026 14.6159C82.0562 14.6916 82.1371 14.7434 82.2282 14.7603C83.65 14.9253 85.0372 15.3121 86.3393 15.9066C87.7784 16.5142 89.1415 17.2881 90.4007 18.2125C93.1282 20.2346 95.4828 22.716 97.3592 25.5456L97.7383 26.0872C97.8647 26.2677 97.9775 26.4572 98.0993 26.6422C98.5235 26.5068 98.9432 26.3579 99.3629 26.191C101.61 25.3282 103.713 24.1292 105.599 22.635C105.599 22.0303 105.599 21.4211 105.541 20.7848C105.235 16.2768 103.863 11.9059 101.538 8.03194C100.402 6.13654 98.9994 4.41458 97.3728 2.91907C96.6173 2.24226 95.7999 1.63792 94.9314 1.114C94.1263 0.611911 93.241 0.251688 92.3141 0.0490122L92.1606 0.00388541C92.0207 -0.0231907 91.9169 0.094139 91.9305 0.265621C91.9443 0.367902 91.9883 0.463742 92.0568 0.540894C93.2551 1.81122 94.3141 3.20605 95.2157 4.70158C96.1675 6.20359 96.9859 7.78606 97.6616 9.43087C98.1259 10.5608 98.5252 11.7165 98.8574 12.8921C96.7997 9.99044 94.2274 7.47688 91.4747 5.86134C89.8798 4.88683 88.1007 4.25232 86.249 3.9976C85.4275 3.8983 84.5959 3.91958 83.7806 4.06078C82.9796 4.18197 82.2187 4.49127 81.5604 4.96332L81.4521 5.04906C81.4165 5.09917 81.3934 5.15702 81.3845 5.21782C81.3757 5.27863 81.3814 5.34067 81.4013 5.39883C81.4211 5.45698 81.4544 5.5096 81.4986 5.55236C81.5427 5.59511 81.5964 5.62677 81.6551 5.64473C83.0963 6.0033 84.478 6.56875 85.7571 7.32345C87.1618 8.1065 88.478 9.03847 89.6832 10.1033C91.3118 11.5373 92.7795 13.1442 94.0605 14.8957C93.3095 14.4057 92.5237 13.9713 91.7094 13.5961C90.0836 12.8224 88.3067 12.4186 86.5062 12.4137C85.6983 12.4284 84.8975 12.5684 84.1326 12.8289C83.3571 13.074 82.6516 13.5011 82.0748 14.0744L81.98 14.1737C81.9356 14.24 81.9138 14.3189 81.9179 14.3986C81.9219 14.4783 81.9517 14.5545 82.0026 14.6159Z" fill="#D9CEF7"/>
<path d="M112.725 77.1706C108.749 102.148 108.664 124.906 88.4784 127.022C68.2932 129.139 50.6215 136.77 47.1242 97.4777C43.6269 58.1858 48.3697 17.4995 76.8537 17.2468C121.57 16.8542 119.047 37.414 112.725 77.1706Z" fill="#D9CEF7"/>
<path d="M112.725 77.1707C108.754 102.144 108.664 124.906 88.4828 127.022C81.1046 127.798 74.0423 129.306 67.9141 128.985C73.1488 128.76 78.9069 127.631 84.8817 127.022C105.049 124.924 105.148 102.162 109.124 77.1707C115.297 38.3616 117.847 17.8245 76.3122 17.2604H76.8537C121.57 16.8542 119.047 37.414 112.725 77.1707Z" fill="#E8E2FA"/>
<g style="mix-blend-mode:multiply" opacity="0.4">
<path d="M71.84 128.99C59.2406 129.626 49.606 125.38 47.124 97.4551C43.6312 58.1407 48.3695 17.504 76.8536 17.2513C78.0389 17.2513 79.1911 17.2513 80.3103 17.2513C52.4445 18.1539 47.819 58.4476 51.2757 97.4416C53.4734 122.212 61.3029 128.362 71.84 128.99Z" fill="#D9CEF7"/>
</g>
<path d="M103.885 133.155C97.1156 134.617 88.2121 135.019 79.8907 135.019C73.2571 135.019 66.804 134.387 60.581 133.823C52.0701 133.047 42.2505 97.6041 43.9924 75.5641C49.8273 76.0741 69.1009 91.8414 70.2968 91.8414C71.3031 91.8414 101.434 69.5352 117.229 74.8557C107.842 101.512 107.247 118.778 108.456 126.445C108.655 127.622 108.185 132.225 103.885 133.155Z" fill="#009374"/>
<path d="M108.469 126.445C108.659 127.622 108.185 132.225 103.885 133.155C97.1156 134.617 88.2121 135.019 79.8907 135.019C79.4033 135.019 78.9205 135.019 78.4376 135.019C86.0234 134.942 93.8755 134.486 99.9857 133.168C104.286 132.239 104.756 127.636 104.571 126.458C103.361 118.787 103.957 101.526 113.343 74.8692C112.173 74.4813 110.961 74.2343 109.733 74.1336C112.259 73.8686 114.812 74.1188 117.238 74.8692C107.856 101.512 107.26 118.778 108.469 126.445Z" fill="#00A27E"/>
<g style="mix-blend-mode:multiply" opacity="0.4">
<path d="M82.7202 135.005H79.8908C73.2571 135.005 66.804 134.378 60.581 133.809C52.0746 133.033 42.2505 97.595 43.997 75.5506C45.071 75.6454 46.6053 76.2591 48.3968 77.1932C47.2371 99.3053 56.7859 133.051 65.0937 133.809C70.7977 134.342 76.6732 134.933 82.7202 135.005Z" fill="#009374"/>
</g>
<path d="M136.064 84.2826C136.064 84.2826 125.758 93.1681 126.913 93.8676C128.068 94.567 151.015 101.76 144.783 118.823C139.043 134.518 112.612 135.01 108.569 138.922C104.255 143.083 101.2 151.156 103.641 154.207C106.082 157.257 109.598 155.56 109.959 151.237C110.32 146.914 112.052 143.773 113.713 143.114C115.374 142.456 147.116 143.642 156.895 120.041C162.08 107.496 151.475 94.2376 136.064 84.2826Z" fill="#D9CEF7"/>
<path d="M156.895 120.041C147.116 143.642 115.419 142.469 113.691 143.132C111.962 143.796 110.275 146.937 109.936 151.255C109.674 154.572 107.531 156.35 105.423 155.596C106.777 155.096 107.833 153.543 108.014 151.255C108.352 146.955 110.108 143.791 111.768 143.132C113.429 142.474 145.207 143.642 154.973 120.037C160.036 107.798 150.045 94.8694 135.23 84.9956L136.051 84.2826C151.475 94.2421 162.08 107.5 156.895 120.041Z" fill="#E8E2FA"/>
<g style="mix-blend-mode:multiply" opacity="0.4">
<g style="mix-blend-mode:multiply" opacity="0.4">
<path d="M149.86 118.823C144.124 134.522 117.693 135.01 113.646 138.922C109.336 143.083 106.276 151.156 108.722 154.207C108.767 154.265 108.817 154.324 108.867 154.378C107.563 156.143 105.342 156.332 103.641 154.207C101.195 151.156 104.255 143.083 108.564 138.922C112.626 135.01 139.043 134.522 144.779 118.823C151.015 101.76 128.082 94.5625 126.913 93.8676C125.744 93.1726 136.065 84.2826 136.065 84.2826C137.044 84.9144 138.005 85.5642 138.948 86.2231C135.992 88.8811 131.186 93.3802 131.994 93.8676C133.154 94.5625 156.096 101.76 149.86 118.823Z" fill="#D9CEF7"/>
</g>
</g>
<path d="M104.02 81.5209C107.45 91.7331 131.209 100.966 131.209 100.966L140.88 83.2086C140.88 83.2086 121.601 71.7058 114.449 69.7428C107.68 67.8881 102.576 77.2293 104.02 81.5209Z" fill="#00A27E"/>
<path d="M135.532 90.5778C136.154 88.4367 136.051 86.1503 135.24 84.0736C134.429 81.9969 132.955 80.2461 131.047 79.0931C125.609 75.7988 118.041 71.4215 113.24 69.5307C113.649 69.5645 114.054 69.6371 114.449 69.7473C121.601 71.7058 140.88 83.2086 140.88 83.2086L134.007 95.8441L135.532 90.5778Z" fill="#00B289"/>
<path d="M133.068 97.5499L131.209 100.966C131.209 100.966 107.445 91.7331 104.02 81.5209C102.752 77.7528 106.529 70.0948 112.048 69.5352C109.232 72.2428 107.725 76.6562 108.591 79.242C111.304 87.3197 126.732 94.7701 133.068 97.5499Z" fill="#008467"/>
<path d="M107.328 133.507C89.2055 135.966 70.8298 135.904 52.7245 133.322C52.4199 133.299 52.1313 133.176 51.903 132.973C51.6747 132.77 51.5194 132.498 51.4609 132.198C51.2443 129.996 51.0473 127.797 50.8698 125.601C50.8111 124.865 51.5647 124.306 52.4267 124.436C71.1669 127.266 90.2257 127.266 108.966 124.436C109.914 124.292 110.703 124.982 110.491 125.79C109.89 128.056 109.247 130.312 108.564 132.559C108.469 132.818 108.303 133.045 108.084 133.213C107.865 133.381 107.603 133.483 107.328 133.507Z" fill="#330E33"/>
<path d="M69.0648 98.6329L69.4123 98.7683L69.4078 99.9958L69.0558 99.8604L69.0648 98.6329Z" fill="#4B1849"/>
<path d="M70.1486 97.8838L70.4961 98.0192C70.4054 97.9845 70.3089 97.9677 70.2118 97.9696C70.1001 97.9696 69.9896 97.9934 69.8877 98.0393C69.7858 98.0851 69.6948 98.1521 69.6207 98.2358L69.2687 98.1005C69.3436 98.0167 69.4354 97.9496 69.5381 97.9037C69.6407 97.8579 69.7519 97.8342 69.8643 97.8342C69.9612 97.8346 70.0574 97.8514 70.1486 97.8838Z" fill="#3B1339"/>
<path d="M69.2679 98.1005L69.6199 98.2358L69.5432 98.3306L69.1957 98.1997C69.2172 98.1648 69.2413 98.1317 69.2679 98.1005Z" fill="#3D133B"/>
<path d="M69.1955 98.1997L69.543 98.3306C69.5247 98.3597 69.5082 98.3899 69.4934 98.4209L69.1459 98.2855C69.1597 98.2554 69.1763 98.2267 69.1955 98.1997Z" fill="#3F143E"/>
<path d="M69.1462 98.2855L69.4937 98.4209C69.4937 98.4479 69.4711 98.475 69.4576 98.5066L69.1101 98.3712C69.1194 98.3416 69.1315 98.3128 69.1462 98.2855Z" fill="#421540"/>
<path d="M69.11 98.3802L69.4575 98.5156C69.4549 98.5441 69.4549 98.5728 69.4575 98.6014L69.1055 98.466L69.1325 98.3802" fill="#441642"/>
<path d="M69.0829 98.457L69.4349 98.5923C69.4328 98.6224 69.4328 98.6525 69.4349 98.6826L69.0874 98.5517V98.457" fill="#461644"/>
<path d="M69.0692 98.5517L69.4167 98.6826C69.4167 98.7142 69.4167 98.7413 69.4167 98.7683L69.0692 98.633C69.0669 98.6059 69.0669 98.5788 69.0692 98.5517Z" fill="#481746"/>
<path d="M70.1479 97.8838L70.4954 98.0192L70.5721 98.0508L70.2202 97.9199L70.1479 97.8838Z" fill="#9E9E9E"/>
<path d="M70.2202 97.9289L70.5722 98.0598L70.6579 98.114L70.3105 97.9786L70.2202 97.9289Z" fill="#A3A3A3"/>
<path d="M70.3112 97.97L70.6586 98.1053L70.7579 98.1866L70.4104 98.0512L70.3112 97.97Z" fill="#A8A8A8"/>
<path d="M70.4006 98.0508L70.7481 98.1862C70.8723 98.3067 70.9519 98.4658 70.9737 98.6375L70.6263 98.5021C70.5956 98.3398 70.517 98.1905 70.4006 98.0734" fill="#ADADAD"/>
<path d="M70.6353 98.4795L70.9827 98.6149C70.9874 98.6584 70.9874 98.7023 70.9827 98.7458L70.6353 98.6104C70.6399 98.5669 70.6399 98.523 70.6353 98.4795Z" fill="#A8A8A8"/>
<path d="M70.6488 98.6104L70.9963 98.7458L70.6488 98.6104Z" fill="#A3A3A3"/>
<path d="M69.0468 99.8604L69.3988 99.9958C67.3952 100.14 65.6623 100.853 64.5793 102.063L64.2318 101.932C65.3149 100.718 67.0477 100.005 69.0468 99.8604Z" fill="#3B1339"/>
<path d="M64.2408 101.932L64.5883 102.063C64.4252 102.24 64.2744 102.429 64.137 102.627L63.7896 102.491C63.9168 102.293 64.0602 102.106 64.2183 101.932" fill="#3D133B"/>
<path d="M63.8121 102.491L64.1596 102.627C64.0541 102.785 63.9605 102.951 63.8798 103.123L63.5323 102.988C63.614 102.816 63.7075 102.65 63.8121 102.491Z" fill="#3F143E"/>
<path d="M63.5323 102.988L63.8798 103.123C63.8036 103.278 63.7372 103.438 63.6812 103.601L63.3292 103.466C63.3868 103.302 63.4546 103.143 63.5323 102.988Z" fill="#421540"/>
<path d="M63.3292 103.466L63.6812 103.601C63.6221 103.765 63.5724 103.933 63.5323 104.102L63.1848 103.971C63.2254 103.795 63.2751 103.628 63.3292 103.466Z" fill="#441642"/>
<path d="M63.1802 103.971L63.5277 104.102C63.4866 104.29 63.455 104.48 63.4329 104.671L63.0854 104.536C63.1071 104.346 63.1388 104.158 63.1802 103.971Z" fill="#461644"/>
<path d="M63.0901 104.536L63.4375 104.671C63.4375 104.851 63.4105 105.036 63.4059 105.226C63.4059 105.28 63.4059 105.334 63.4059 105.384L63.054 105.253V105.091C63.054 104.901 63.054 104.716 63.0855 104.536" fill="#481746"/>
<path d="M63.0585 105.253L63.4105 105.384C63.4128 105.687 63.4415 105.989 63.4962 106.286L63.1442 106.151C63.0914 105.853 63.0628 105.551 63.0585 105.249" fill="#4B1849"/>
<path d="M63.1442 106.16L63.4962 106.295C63.6353 107.156 64.0502 107.948 64.6785 108.552L64.3265 108.416C63.7006 107.811 63.2861 107.02 63.1442 106.16Z" fill="#4D184B"/>
<path d="M64.3265 108.43L64.6785 108.565C64.8654 108.743 65.0661 108.906 65.2787 109.053L64.9267 108.917C64.7128 108.773 64.512 108.61 64.3265 108.43Z" fill="#4B1849"/>
<path d="M64.9266 108.917L65.2786 109.053C65.4982 109.203 65.7273 109.339 65.9646 109.459L65.6171 109.328C65.3788 109.205 65.1483 109.068 64.9266 108.917Z" fill="#481746"/>
<path d="M65.6172 109.328L65.9647 109.459C66.2324 109.597 66.5081 109.719 66.7905 109.824L66.4385 109.694C66.1587 109.581 65.8789 109.463 65.6172 109.328Z" fill="#461644"/>
<path d="M69.0468 103.191L69.3942 103.326C68.9737 103.378 68.5837 103.573 68.2886 103.877L67.9412 103.741C68.2362 103.437 68.6263 103.243 69.0468 103.191Z" fill="#858585"/>
<path d="M67.9321 103.741L68.2796 103.877C68.2325 103.93 68.1902 103.987 68.1533 104.048L67.8013 103.913C67.8413 103.853 67.885 103.796 67.9321 103.741Z" fill="#8A8A8A"/>
<path d="M67.8013 103.913L68.1533 104.048C68.1206 104.098 68.0905 104.149 68.0631 104.202L67.7156 104.066C67.7415 104.014 67.7701 103.962 67.8013 103.913Z" fill="#8F8F8F"/>
<path d="M67.7154 104.066L68.0629 104.202L67.9952 104.364L67.6477 104.233C67.6656 104.176 67.6882 104.12 67.7154 104.066Z" fill="#949494"/>
<path d="M67.6478 104.247L67.9953 104.378L67.9411 104.563L67.5936 104.427C67.6069 104.366 67.625 104.305 67.6478 104.247Z" fill="#999999"/>
<path d="M67.5936 104.414L67.9411 104.549C67.9411 104.621 67.914 104.693 67.905 104.77L67.5575 104.635C67.5648 104.56 67.5768 104.487 67.5936 104.414Z" fill="#9E9E9E"/>
<path d="M67.5577 104.635L67.9051 104.77C67.9005 104.85 67.9005 104.93 67.9051 105.009V105.055L67.5577 104.919V104.874C67.553 104.794 67.553 104.714 67.5577 104.635Z" fill="#A3A3A3"/>
<path d="M70.6487 98.6284L70.9962 98.7638L70.9916 99.9913L70.6396 99.8559L70.6487 98.6284Z" fill="#AAAAAA"/>
<path d="M70.5449 96.8324L70.8969 96.9678C70.9587 96.9911 71.019 97.0182 71.0774 97.049L70.7299 96.9136C70.67 96.8828 70.6082 96.8557 70.5449 96.8324Z" fill="#461644"/>
<path d="M70.7307 96.914L71.0782 97.0494C71.1523 97.0854 71.2233 97.1277 71.2903 97.1757L70.9428 97.0403C70.8748 96.9939 70.8039 96.9517 70.7307 96.914Z" fill="#481746"/>
<path d="M70.9421 97.0264L71.2896 97.1618C71.3752 97.219 71.4552 97.2839 71.5288 97.3559L71.1813 97.225C71.1059 97.1538 71.026 97.0874 70.9421 97.0264Z" fill="#4B1849"/>
<path d="M71.1814 97.2385L71.5289 97.3694C71.8157 97.6505 72.0094 98.0127 72.0839 98.4073L71.7319 98.2719C71.6609 97.8784 71.4684 97.517 71.1814 97.2385Z" fill="#4D184B"/>
<path d="M71.7543 98.2719L72.1063 98.4073C72.1224 98.5089 72.1314 98.6114 72.1333 98.7142L71.7859 98.5788C71.7823 98.4759 71.7717 98.3734 71.7543 98.2719Z" fill="#4B1849"/>
<path d="M71.7543 98.5788L72.1018 98.7142V98.7593L71.7543 98.6239V98.5788Z" fill="#481746"/>
<path d="M71.7634 98.6239L72.1109 98.7593V98.994L71.7634 98.8586V98.6239Z" fill="#4B1849"/>
<path d="M69.0378 103.191L69.3853 103.326L69.3673 106.805L69.0198 106.67L69.0378 103.191Z" fill="#4B1849"/>
<path d="M67.5596 104.635L67.9071 104.77C67.9025 104.85 67.9025 104.93 67.9071 105.009V105.054L67.5596 104.919V104.874C67.555 104.794 67.555 104.714 67.5596 104.635Z" fill="#A3A3A3"/>
<path d="M67.5441 104.919L67.8915 105.054C67.8957 105.145 67.9047 105.236 67.9186 105.325L67.5711 105.194C67.553 105.104 67.5439 105.012 67.5441 104.919Z" fill="#A8A8A8"/>
<path d="M67.5713 105.194L67.9188 105.325C67.98 105.658 68.1479 105.962 68.3971 106.192L68.0496 106.061C67.8022 105.83 67.6347 105.527 67.5713 105.194Z" fill="#ADADAD"/>
<path d="M68.0494 106.052L68.3969 106.183C68.4932 106.274 68.5958 106.358 68.7038 106.435L68.3563 106.3C68.2475 106.226 68.1449 106.143 68.0494 106.052Z" fill="#A8A8A8"/>
<path d="M68.3563 106.309L68.7038 106.444C68.8363 106.533 68.9733 106.614 69.1144 106.688L68.767 106.553C68.6253 106.48 68.4882 106.398 68.3563 106.309Z" fill="#A3A3A3"/>
<path d="M68.767 106.553L69.1144 106.688L69.3672 106.805L69.0197 106.67C68.9294 106.634 68.8482 106.593 68.767 106.553Z" fill="#9E9E9E"/>
<path d="M67.5441 104.874C67.523 104.454 67.6677 104.042 67.947 103.727C68.2263 103.412 68.618 103.22 69.0378 103.191V106.67C68.1443 106.273 67.5396 105.749 67.5441 104.874Z" fill="#5F1E5C"/>
<path d="M70.6217 103.313L70.9692 103.448L70.9511 107.324L70.5991 107.193L70.6217 103.313Z" fill="#AAAAAA"/>
<path d="M70.6713 103.344L71.0187 103.48C71.0854 103.503 71.1502 103.532 71.2128 103.565L70.8608 103.43C70.8002 103.396 70.7368 103.367 70.6713 103.344Z" fill="#461644"/>
<path d="M70.8527 103.417L71.2046 103.552C71.2754 103.587 71.3433 103.628 71.4077 103.674L71.0602 103.539C70.9937 103.494 70.9243 103.453 70.8527 103.417Z" fill="#481746"/>
<path d="M71.0684 103.538L71.4158 103.674C71.492 103.727 71.5643 103.786 71.6324 103.85L71.285 103.714C71.2169 103.651 71.1445 103.592 71.0684 103.538Z" fill="#4B1849"/>
<path d="M71.3031 103.714L71.6506 103.85C71.9533 104.155 72.1508 104.548 72.2147 104.973L71.8627 104.838C71.8004 104.413 71.6044 104.02 71.3031 103.714Z" fill="#4D184B"/>
<path d="M71.8446 104.838L72.1966 104.973C72.1966 105.045 72.2192 105.118 72.2237 105.194L71.8762 105.059C71.8762 104.982 71.8762 104.91 71.8446 104.838Z" fill="#4B1849"/>
<path d="M70.6713 103.344L71.0188 103.48H70.9692L70.6217 103.344H70.6713Z" fill="#858585"/>
<path d="M67.8824 111.359L68.2299 111.494C67.6793 111.336 67.0927 111.16 66.506 110.935L66.1586 110.799C66.7407 111.025 67.3273 111.201 67.8824 111.359Z" fill="#3B1339"/>
<path d="M67.5484 112.482L67.8959 112.618L66.0593 112.622L65.7073 112.487L67.5484 112.482Z" fill="#391237"/>
<path d="M68.997 110.452L69.3445 110.587C68.4793 110.382 67.6266 110.127 66.7903 109.824L66.4384 109.694C67.277 109.992 68.1312 110.245 68.997 110.452Z" fill="#858585"/>
<path d="M65.7075 112.487L66.0595 112.622C65.7862 112.623 65.5163 112.682 65.2674 112.795C65.0185 112.908 64.7963 113.072 64.6154 113.277L64.2679 113.141C64.4485 112.937 64.67 112.774 64.918 112.661C65.1661 112.548 65.4351 112.489 65.7075 112.487Z" fill="#3B1339"/>
<path d="M64.2678 113.141L64.6152 113.277C64.546 113.355 64.4827 113.438 64.4257 113.525L64.0782 113.389C64.1334 113.301 64.1969 113.218 64.2678 113.141Z" fill="#3D133B"/>
<path d="M64.0829 113.389L64.4304 113.525C64.3839 113.597 64.3417 113.673 64.304 113.75L63.952 113.615C63.9913 113.537 64.035 113.462 64.0829 113.389Z" fill="#3F143E"/>
<path d="M63.9474 113.615L64.2994 113.75C64.2639 113.82 64.2338 113.893 64.2092 113.967L63.8572 113.832C63.8843 113.755 63.9158 113.687 63.9474 113.615Z" fill="#421540"/>
<path d="M63.8571 113.832L64.2091 113.967C64.1833 114.036 64.1622 114.107 64.1459 114.179L63.7985 114.048C63.8126 113.975 63.8323 113.902 63.8571 113.832Z" fill="#441642"/>
<path d="M63.7985 114.048L64.146 114.179C64.1274 114.253 64.1153 114.329 64.1099 114.405L63.7579 114.269C63.7667 114.195 63.7803 114.121 63.7985 114.048Z" fill="#461644"/>
<path d="M63.758 114.269L64.11 114.405C64.1055 114.486 64.1055 114.567 64.11 114.648L63.7625 114.513C63.7558 114.432 63.7558 114.35 63.7625 114.269" fill="#481746"/>
<path d="M63.749 114.513L64.0965 114.648C64.1003 114.745 64.1109 114.842 64.1281 114.937L63.7761 114.802C63.7582 114.707 63.7491 114.61 63.749 114.513Z" fill="#4B1849"/>
<path d="M63.776 114.802L64.128 114.937C64.1847 115.251 64.3233 115.543 64.5296 115.786C64.6379 115.912 64.7507 116.038 64.8726 116.156L64.5251 116.02C64.4024 115.904 64.2864 115.78 64.1776 115.65C63.9725 115.407 63.8341 115.115 63.776 114.802Z" fill="#4D184B"/>
<path d="M64.5341 116.02L64.8815 116.156C65.0879 116.35 65.3081 116.53 65.5404 116.693L65.1929 116.557C64.9587 116.397 64.7383 116.217 64.5341 116.02Z" fill="#4B1849"/>
<path d="M65.1838 116.557L65.5313 116.693C65.7443 116.838 65.9658 116.971 66.1947 117.09L65.8472 116.954C65.6178 116.836 65.3962 116.704 65.1838 116.557Z" fill="#481746"/>
<path d="M65.8472 116.954L66.1946 117.09C66.4067 117.194 66.6459 117.293 66.8535 117.383L66.506 117.248C66.2759 117.157 66.0548 117.063 65.8472 116.954Z" fill="#461644"/>
<path d="M73.0494 100.37L73.4014 100.506C72.6278 100.217 71.8158 100.043 70.9916 99.9913L70.6396 99.8559C71.4638 99.9081 72.2758 100.081 73.0494 100.37Z" fill="#3B1339"/>
<path d="M71.7183 106.183L72.0702 106.318L72.0657 106.467L71.7183 106.332V106.183Z" fill="#4B1849"/>
<path d="M71.8717 106.183L72.2192 106.318H72.0702L71.7183 106.183H71.8717Z" fill="#391237"/>
<path d="M67.5485 112.482L67.8959 112.618C67.8959 112.713 67.9185 112.807 67.932 112.898L67.5846 112.767C67.5675 112.673 67.5555 112.578 67.5485 112.482Z" fill="#A8A8A8"/>
<path d="M67.5846 112.767L67.9321 112.898C67.9963 113.341 68.2002 113.752 68.5142 114.071L68.1667 113.935C67.8518 113.619 67.6476 113.209 67.5846 112.767Z" fill="#ADADAD"/>
<path d="M68.1669 113.935L68.5143 114.071C68.5858 114.14 68.6628 114.204 68.7445 114.26L68.397 114.125C68.3142 114.07 68.2372 114.006 68.1669 113.935Z" fill="#A8A8A8"/>
<path d="M68.397 114.125L68.7445 114.26C68.817 114.31 68.8923 114.355 68.9701 114.396L68.6226 114.26C68.5443 114.221 68.4689 114.175 68.397 114.125Z" fill="#A3A3A3"/>
<path d="M68.6224 114.26L68.9699 114.396C69.0416 114.432 69.1154 114.464 69.191 114.491L68.839 114.36C68.7623 114.328 68.6901 114.296 68.6224 114.26Z" fill="#9E9E9E"/>
<path d="M68.9971 110.452L69.3445 110.587L69.322 114.54L68.9745 114.405L68.9971 110.452Z" fill="#4B1849"/>
<path d="M68.9745 114.405L69.322 114.54L69.1911 114.49L68.8391 114.36L68.9745 114.405Z" fill="#3B1339"/>
<path d="M67.8372 118.773L68.1892 118.908C67.5931 118.807 67.0082 118.649 66.4428 118.435L66.0953 118.299C66.659 118.514 67.2425 118.673 67.8372 118.773Z" fill="#3B1339"/>
<path d="M73.7174 105.054L74.0694 105.19L72.2237 105.194L71.8762 105.059L73.7174 105.054Z" fill="#808080"/>
<path d="M68.9565 117.785L69.304 117.92C68.4663 117.855 67.6417 117.674 66.8536 117.383L66.5061 117.248C67.2936 117.541 68.1185 117.722 68.9565 117.785Z" fill="#858585"/>
<path d="M73.7129 106.178L74.0604 106.309L72.2192 106.318L71.8717 106.183L73.7129 106.178Z" fill="#391237"/>
<path d="M70.5766 110.921L70.9286 111.056L70.9061 114.608L70.5586 114.472L70.5766 110.921Z" fill="#AAAAAA"/>
<path d="M73.1939 107.983L73.5414 108.119C72.6885 107.789 71.7814 107.559 70.9511 107.324L70.5991 107.193C71.434 107.424 72.341 107.645 73.1939 107.983Z" fill="#3B1339"/>
<path d="M68.9565 117.785L69.304 117.92L69.295 119.17L68.9475 119.035L68.9565 117.785Z" fill="#4B1849"/>
<path d="M68.9476 119.039L69.2951 119.17V119.193L68.9476 119.057" fill="#481746"/>
<path d="M68.9476 119.057L69.2951 119.193V119.319L68.9476 119.184C68.9429 119.142 68.9429 119.099 68.9476 119.057Z" fill="#4B1849"/>
<path d="M68.9609 119.184L69.3084 119.32C69.3341 119.491 69.4149 119.649 69.5386 119.771L69.1866 119.636C69.0702 119.518 68.9916 119.369 68.9609 119.207" fill="#4D184B"/>
<path d="M69.1866 119.612L69.5386 119.748C69.5685 119.779 69.6018 119.806 69.6379 119.829L69.2859 119.694C69.2498 119.67 69.2165 119.643 69.1866 119.612Z" fill="#4B1849"/>
<path d="M69.2859 119.694L69.6379 119.829L69.7236 119.883L69.3761 119.748L69.2859 119.694Z" fill="#481746"/>
<path d="M69.3762 119.748L69.7237 119.883L69.8004 119.915L69.4484 119.779L69.3762 119.748Z" fill="#461644"/>
<path d="M70.5768 110.921L70.9288 111.056C71.0999 111.12 71.2672 111.194 71.4297 111.277L71.0777 111.142C70.9156 111.058 70.7483 110.984 70.5768 110.921Z" fill="#461644"/>
<path d="M71.0775 111.142L71.4295 111.277C71.5525 111.339 71.6715 111.409 71.786 111.485L71.434 111.354C71.3213 111.274 71.2021 111.203 71.0775 111.142Z" fill="#481746"/>
<path d="M71.4338 111.354L71.7858 111.485C71.8833 111.553 71.9753 111.628 72.0611 111.711L71.7136 111.575C71.6262 111.495 71.5326 111.421 71.4338 111.354Z" fill="#4B1849"/>
<path d="M71.7139 111.575L72.0613 111.711C72.2952 111.924 72.4536 112.207 72.5126 112.518L72.1651 112.383C72.1061 112.072 71.9478 111.789 71.7139 111.575Z" fill="#4D184B"/>
<path d="M72.156 112.37L72.5035 112.505C72.5174 112.592 72.5265 112.679 72.5306 112.767L72.1786 112.636C72.1782 112.547 72.1706 112.458 72.156 112.37Z" fill="#4B1849"/>
<path d="M72.1785 112.649L72.5305 112.78V112.825C72.5351 112.894 72.5351 112.964 72.5305 113.033L72.183 112.898C72.183 112.83 72.183 112.762 72.183 112.69V112.649" fill="#481746"/>
<path d="M72.1695 112.898L72.517 113.033C72.5097 113.103 72.4977 113.172 72.4809 113.24L72.1334 113.11C72.1334 113.037 72.1605 112.97 72.1695 112.898Z" fill="#461644"/>
<path d="M72.1334 113.11L72.4809 113.24C72.4676 113.305 72.4495 113.368 72.4267 113.43L72.0792 113.295C72.102 113.234 72.1201 113.173 72.1334 113.11Z" fill="#441642"/>
<path d="M72.0793 113.295L72.4268 113.43C72.4066 113.49 72.3825 113.549 72.3546 113.606L72.0071 113.471C72.0342 113.412 72.0567 113.353 72.0793 113.295Z" fill="#421540"/>
<path d="M72.0071 113.471L72.3546 113.606C72.3252 113.667 72.292 113.725 72.2553 113.782L71.9033 113.651C71.9394 113.592 71.9755 113.534 72.0071 113.471Z" fill="#3F143E"/>
<path d="M71.9033 113.651L72.2553 113.782C72.2104 113.853 72.1591 113.919 72.1019 113.981L71.7544 113.85C71.808 113.787 71.8577 113.72 71.9033 113.651Z" fill="#3D133B"/>
<path d="M71.7545 113.85L72.1019 113.981C71.7857 114.319 71.3641 114.54 70.9061 114.608L70.5586 114.472C71.0158 114.405 71.4371 114.186 71.7545 113.85Z" fill="#3B1339"/>
<path d="M70.5766 110.921C71.5424 111.291 72.1832 111.792 72.1786 112.69C72.1754 113.134 72.0084 113.562 71.7094 113.891C71.4105 114.22 71.0007 114.427 70.5586 114.472L70.5766 110.921Z" fill="#5F1E5C"/>
<path d="M73.0496 100.37L73.4015 100.506C73.6091 100.587 73.8122 100.677 74.0063 100.776L73.6588 100.641C73.4607 100.54 73.2573 100.45 73.0496 100.37Z" fill="#9E9E9E"/>
<path d="M73.6588 100.637L74.0063 100.772C74.22 100.88 74.4265 101.002 74.6245 101.137L74.2725 101.007C74.0762 100.87 73.8712 100.747 73.6588 100.637Z" fill="#A3A3A3"/>
<path d="M74.2725 101.011L74.6244 101.142C74.8438 101.297 75.052 101.467 75.2472 101.652L74.9133 101.539C74.721 101.353 74.5126 101.183 74.2905 101.034" fill="#A8A8A8"/>
<path d="M74.9131 101.539L75.2651 101.674C75.3954 101.802 75.5189 101.936 75.6351 102.076C75.8321 102.315 75.9642 102.601 76.0187 102.906L75.6712 102.771C75.6168 102.465 75.483 102.179 75.2831 101.941C75.1682 101.799 75.0446 101.665 74.9131 101.539Z" fill="#ADADAD"/>
<path d="M75.6534 102.749L76.0009 102.884C76.0181 102.978 76.0287 103.073 76.0325 103.168L75.6805 103.033C75.6805 102.937 75.6714 102.842 75.6534 102.749Z" fill="#A8A8A8"/>
<path d="M75.6804 103.033L76.0324 103.168C76.037 103.248 76.037 103.328 76.0324 103.407L75.6849 103.277C75.6917 103.195 75.6917 103.114 75.6849 103.033" fill="#A3A3A3"/>
<path d="M75.6712 103.276L76.0187 103.407C76.0136 103.482 76.0016 103.556 75.9826 103.628L75.6351 103.498C75.6351 103.421 75.6622 103.349 75.6712 103.276Z" fill="#9E9E9E"/>
<path d="M75.6352 103.498L75.9827 103.628C75.9664 103.702 75.9453 103.774 75.9195 103.845L75.572 103.71C75.572 103.642 75.6171 103.57 75.6352 103.498Z" fill="#999999"/>
<path d="M75.5721 103.71L75.9195 103.845C75.8953 103.92 75.8651 103.992 75.8293 104.062L75.4818 103.926C75.5134 103.854 75.545 103.782 75.5721 103.71Z" fill="#949494"/>
<path d="M75.4818 103.926L75.8293 104.062C75.7933 104.139 75.7511 104.213 75.7029 104.283L75.3555 104.147C75.4019 104.076 75.4441 104.002 75.4818 103.926Z" fill="#8F8F8F"/>
<path d="M75.3645 104.147L75.7119 104.283C75.6554 104.372 75.592 104.456 75.5224 104.536L75.1704 104.4C75.2414 104.321 75.3063 104.236 75.3645 104.147Z" fill="#8A8A8A"/>
<path d="M75.1615 104.4L75.5135 104.536C75.3317 104.739 75.1093 104.903 74.8606 105.015C74.6119 105.128 74.3424 105.187 74.0694 105.19L73.7174 105.054C73.9906 105.053 74.2603 104.994 74.5091 104.881C74.7579 104.768 74.9802 104.605 75.1615 104.4Z" fill="#858585"/>
<path d="M70.5406 117.803L70.8881 117.938L70.8836 119.166L70.5316 119.03L70.5406 117.803Z" fill="#AAAAAA"/>
<path d="M70.5316 119.03L70.8836 119.166C70.8858 119.194 70.8858 119.223 70.8836 119.251L70.5361 119.116C70.5385 119.087 70.5385 119.059 70.5361 119.03" fill="#A3A3A3"/>
<path d="M70.527 119.139L70.8745 119.274C70.8792 119.304 70.8792 119.334 70.8745 119.364L70.527 119.233V119.139Z" fill="#9E9E9E"/>
<path d="M70.5134 119.211L70.8609 119.342C70.8561 119.373 70.8469 119.403 70.8338 119.432L70.4863 119.297L70.5134 119.211Z" fill="#999999"/>
<path d="M70.4863 119.297L70.8338 119.432C70.8338 119.459 70.8338 119.486 70.8022 119.518L70.4502 119.382C70.4641 119.355 70.4762 119.326 70.4863 119.297Z" fill="#949494"/>
<path d="M70.4502 119.382L70.8021 119.518L70.7525 119.603L70.4005 119.468L70.4502 119.382Z" fill="#8F8F8F"/>
<path d="M70.4005 119.468L70.7524 119.603C70.7294 119.638 70.7038 119.672 70.6757 119.703L70.3282 119.567C70.3548 119.536 70.379 119.503 70.4005 119.468Z" fill="#8A8A8A"/>
<path d="M70.3285 119.59L70.6759 119.725C70.6018 119.809 70.5108 119.876 70.4089 119.922C70.307 119.968 70.1965 119.991 70.0848 119.991C69.9874 119.992 69.8909 119.973 69.8005 119.937L69.4485 119.802C69.5405 119.838 69.6385 119.856 69.7373 119.856C69.849 119.855 69.9593 119.831 70.0611 119.786C70.1629 119.74 70.254 119.673 70.3285 119.59Z" fill="#858585"/>
<path d="M73.4467 99.3189L73.7941 99.4543C74.0407 99.5474 74.2817 99.6543 74.5162 99.7747L74.1687 99.6393C73.9338 99.5198 73.6928 99.4128 73.4467 99.3189Z" fill="#461644"/>
<path d="M74.1687 99.6393L74.5162 99.7747C74.7752 99.9089 75.0255 100.06 75.2653 100.226L74.9133 100.091C74.675 99.9243 74.4263 99.7736 74.1687 99.6393Z" fill="#481746"/>
<path d="M74.9131 100.086L75.2651 100.221C75.535 100.409 75.7899 100.617 76.0277 100.844L75.6757 100.709C75.4389 100.481 75.1838 100.272 74.9131 100.086Z" fill="#4B1849"/>
<path d="M75.6759 100.709L76.0279 100.844C76.1875 100.998 76.3382 101.161 76.4792 101.332C76.7982 101.722 77.0111 102.188 77.0974 102.685L76.7499 102.55C76.6621 102.053 76.4477 101.586 76.1272 101.196C75.9875 101.024 75.8367 100.861 75.6759 100.709Z" fill="#4D184B"/>
<path d="M76.7499 102.541L77.0973 102.676C77.125 102.825 77.1401 102.976 77.1425 103.128L76.795 102.992C76.7905 102.841 76.7754 102.69 76.7499 102.541Z" fill="#4B1849"/>
<path d="M76.7949 103.01L77.1424 103.146C77.1514 103.272 77.1514 103.398 77.1424 103.525L76.7949 103.389C76.8017 103.263 76.8017 103.137 76.7949 103.01Z" fill="#481746"/>
<path d="M76.7769 103.389L77.1244 103.525C77.1136 103.642 77.094 103.758 77.0657 103.872L76.7183 103.737C76.7444 103.622 76.764 103.506 76.7769 103.389Z" fill="#461644"/>
<path d="M76.7183 103.737L77.0658 103.872C77.0426 103.986 77.0109 104.097 76.971 104.206L76.6235 104.071C76.6596 103.958 76.6912 103.85 76.7183 103.737Z" fill="#441642"/>
<path d="M76.6235 104.071L76.971 104.206C76.9347 104.309 76.8925 104.41 76.8447 104.508C76.8463 104.52 76.8463 104.533 76.8447 104.545L76.4972 104.414V104.373C76.5423 104.274 76.5874 104.17 76.6235 104.071Z" fill="#421540"/>
<path d="M76.4791 104.414L76.8265 104.545C76.7685 104.668 76.7021 104.787 76.628 104.901L76.276 104.766C76.3523 104.654 76.4202 104.536 76.4791 104.414Z" fill="#3F143E"/>
<path d="M76.2671 104.766L76.6191 104.901C76.5304 105.036 76.4324 105.164 76.3257 105.285L75.9783 105.149C76.0845 105.029 76.1811 104.901 76.2671 104.766Z" fill="#3D133B"/>
<path d="M75.9873 105.149L76.3348 105.285C76.0522 105.605 75.7051 105.862 75.3162 106.038C74.9273 106.215 74.5055 106.307 74.0784 106.309L73.731 106.174C74.1579 106.171 74.5796 106.079 74.9684 105.902C75.3571 105.726 75.7043 105.469 75.9873 105.149Z" fill="#3B1339"/>
<path d="M71.646 118.818L71.998 118.954L71.9935 119.161L71.646 119.026V118.818Z" fill="#4B1849"/>
<path d="M71.646 119.026L71.998 119.161C71.998 119.229 71.998 119.296 71.998 119.364L71.6505 119.229C71.6505 119.166 71.6505 119.098 71.6505 119.026" fill="#481746"/>
<path d="M71.6371 119.229L71.9845 119.364C71.9845 119.441 71.9845 119.513 71.9484 119.585L71.5964 119.45C71.6147 119.377 71.6283 119.303 71.6371 119.229Z" fill="#461644"/>
<path d="M71.5965 119.45L71.9485 119.585C71.9322 119.656 71.9111 119.725 71.8853 119.793L71.5378 119.662C71.5621 119.593 71.5817 119.522 71.5965 119.45Z" fill="#441642"/>
<path d="M71.5378 119.662L71.8852 119.793C71.8613 119.864 71.8327 119.933 71.7995 120L71.452 119.865C71.4836 119.797 71.5107 119.73 71.5378 119.662Z" fill="#421540"/>
<path d="M71.4522 119.865L71.7996 120C71.7635 120.073 71.7229 120.145 71.6823 120.213L71.3303 120.077C71.3753 120.009 71.416 119.938 71.4522 119.865Z" fill="#3F143E"/>
<path d="M71.3303 120.077L71.6823 120.213C71.6272 120.295 71.5669 120.373 71.5018 120.447L71.1498 120.316C71.2163 120.242 71.2767 120.162 71.3303 120.077Z" fill="#3D133B"/>
<path d="M71.1497 120.316L71.5017 120.447C71.2455 120.737 70.9073 120.943 70.5317 121.036C70.1561 121.13 69.761 121.107 69.3987 120.971L69.0513 120.835C69.2684 120.92 69.4998 120.961 69.7327 120.957C70.0007 120.956 70.2655 120.899 70.5097 120.788C70.754 120.678 70.972 120.517 71.1497 120.316Z" fill="#3B1339"/>
<path d="M73.194 107.983L73.5414 108.119C73.8373 108.23 74.1266 108.358 74.4079 108.502L74.0604 108.367C73.7806 108.227 73.4918 108.101 73.194 107.983Z" fill="#9E9E9E"/>
<path d="M74.0603 108.367L74.4078 108.502C74.651 108.625 74.8862 108.764 75.1118 108.917L74.7598 108.786C74.5358 108.632 74.3022 108.492 74.0603 108.367Z" fill="#A3A3A3"/>
<path d="M74.7598 108.786L75.1118 108.917C75.3271 109.065 75.5294 109.231 75.7165 109.414L75.369 109.278C75.1793 109.098 74.9756 108.934 74.7598 108.786Z" fill="#A8A8A8"/>
<path d="M75.3645 109.278L75.712 109.414C76.3304 110.008 76.739 110.787 76.8763 111.634L76.5243 111.499C76.3895 110.652 75.9823 109.873 75.3645 109.278Z" fill="#ADADAD"/>
<path d="M76.5288 111.499L76.8808 111.634C76.9321 111.923 76.9592 112.216 76.962 112.509L76.6146 112.374C76.6104 112.08 76.5817 111.788 76.5288 111.499Z" fill="#A8A8A8"/>
<path d="M76.6145 112.37L76.9619 112.505V112.658C76.9619 112.833 76.9529 113.008 76.9349 113.182L76.5829 113.046C76.6048 112.873 76.6153 112.698 76.6145 112.523V112.37Z" fill="#A3A3A3"/>
<path d="M76.5829 113.051L76.9349 113.186C76.9349 113.376 76.8808 113.565 76.8401 113.75L76.4882 113.615C76.5332 113.43 76.5649 113.241 76.5829 113.051Z" fill="#9E9E9E"/>
<path d="M76.4882 113.615L76.8401 113.75C76.8 113.926 76.7488 114.1 76.6867 114.269L76.3392 114.134C76.3984 113.964 76.4481 113.791 76.4882 113.615Z" fill="#999999"/>
<path d="M76.3392 114.134L76.6866 114.269C76.6272 114.444 76.5564 114.614 76.4746 114.779L76.1271 114.648C76.207 114.481 76.2778 114.309 76.3392 114.134Z" fill="#949494"/>
<path d="M76.1272 114.648L76.4747 114.779C76.3885 114.96 76.2905 115.135 76.1813 115.303L75.8293 115.167C75.939 115.001 76.0384 114.827 76.1272 114.648Z" fill="#8F8F8F"/>
<path d="M75.8158 115.167L76.1678 115.303C76.0332 115.514 75.8823 115.715 75.7165 115.903L75.369 115.768C75.5346 115.579 75.6855 115.379 75.8203 115.167" fill="#8A8A8A"/>
<path d="M75.3647 115.768L75.7122 115.903C74.6923 117.045 73.0587 117.834 70.8791 117.938L70.5316 117.803C72.7112 117.699 74.3448 116.9 75.3647 115.768Z" fill="#858585"/>
<path d="M70.5991 107.193C73.2481 107.934 76.6371 108.647 76.6145 112.527C76.6145 115.235 74.453 117.613 70.5405 117.803V119.03C70.5411 119.135 70.521 119.239 70.4814 119.336C70.4418 119.433 70.3835 119.522 70.3097 119.596C70.236 119.671 70.1482 119.73 70.0516 119.771C69.9549 119.812 69.8511 119.833 69.7462 119.834C69.642 119.834 69.5386 119.814 69.4423 119.774C69.3459 119.734 69.2584 119.676 69.1849 119.602C69.1114 119.528 69.0533 119.44 69.0141 119.344C68.9749 119.247 68.9553 119.144 68.9565 119.039V117.785C66.9258 117.613 65.2245 116.882 64.1776 115.65C63.9539 115.362 63.8152 115.017 63.7772 114.654C63.7392 114.291 63.8033 113.925 63.9624 113.596C64.1214 113.268 64.3691 112.99 64.6774 112.795C64.9857 112.6 65.3425 112.495 65.7074 112.491H67.5486C67.5492 112.922 67.688 113.342 67.9447 113.688C68.2014 114.034 68.5624 114.288 68.9746 114.414V110.461C66.3301 109.77 63.0133 109.03 63.0359 105.1C63.0359 101.972 65.6623 100.109 69.0332 99.8694V98.642C69.0332 98.5371 69.0539 98.4332 69.094 98.3363C69.1342 98.2394 69.193 98.1513 69.2672 98.0772C69.3413 98.003 69.4294 97.9442 69.5263 97.904C69.6232 97.8639 69.7271 97.8432 69.832 97.8432C69.936 97.8426 70.0391 97.8628 70.1353 97.9026C70.2314 97.9424 70.3186 98.001 70.3918 98.075C70.4649 98.149 70.5226 98.2369 70.5613 98.3335C70.6 98.4301 70.619 98.5334 70.6172 98.6375V99.8649C72.6569 100.023 74.2499 100.713 75.2427 101.927C75.4625 102.216 75.5973 102.561 75.632 102.923C75.6668 103.284 75.6 103.649 75.4392 103.974C75.2784 104.3 75.03 104.575 74.7219 104.767C74.4138 104.959 74.0581 105.062 73.6948 105.064H71.8537C71.8436 104.68 71.7186 104.309 71.4949 103.997C71.2712 103.686 70.9591 103.449 70.5991 103.317V107.193ZM70.5585 114.472C71.0006 114.427 71.4104 114.22 71.7093 113.891C72.0083 113.562 72.1754 113.134 72.1786 112.69C72.1786 111.787 71.5423 111.291 70.5766 110.921V114.472H70.5585ZM69.0377 106.67V103.191C68.6179 103.22 68.2262 103.412 67.9469 103.727C67.6676 104.042 67.523 104.454 67.544 104.874C67.544 105.749 68.1307 106.273 69.0197 106.679" fill="white"/>
<path d="M73.5323 106.914L73.8798 107.049C74.2278 107.181 74.5682 107.331 74.8997 107.5L74.5522 107.365C74.2208 107.196 73.8803 107.045 73.5323 106.914Z" fill="#461644"/>
<path d="M74.5522 107.365L74.8997 107.5C75.194 107.651 75.4789 107.82 75.7526 108.006L75.4006 107.87C75.128 107.685 74.8447 107.517 74.5522 107.365Z" fill="#481746"/>
<path d="M75.4006 107.857L75.7526 107.992C76.0208 108.177 76.2729 108.384 76.5062 108.61L76.1588 108.475C75.9227 108.249 75.6692 108.043 75.4006 107.857Z" fill="#4B1849"/>
<path d="M76.1587 108.489L76.5062 108.624C77.2841 109.368 77.7988 110.346 77.9728 111.408L77.6253 111.273C77.4486 110.211 76.9342 109.235 76.1587 108.489Z" fill="#4D184B"/>
<path d="M77.6208 111.273L77.9683 111.408C78.0305 111.76 78.0637 112.116 78.0676 112.473L77.7201 112.338C77.7138 111.981 77.6806 111.625 77.6208 111.273Z" fill="#4B1849"/>
<path d="M77.7246 112.338L78.0721 112.473C78.0721 112.536 78.0721 112.595 78.0721 112.658C78.0721 112.879 78.0721 113.11 78.0314 113.317L77.684 113.182C77.7074 112.963 77.7194 112.743 77.7201 112.523V112.338" fill="#481746"/>
<path d="M77.6885 113.182L78.036 113.317C78.0108 113.549 77.9716 113.78 77.9186 114.008L77.5712 113.872C77.622 113.644 77.6611 113.414 77.6885 113.182Z" fill="#461644"/>
<path d="M77.5711 113.872L77.9186 114.008C77.8701 114.223 77.8098 114.435 77.7381 114.644L77.3861 114.509C77.4593 114.3 77.5211 114.088 77.5711 113.872Z" fill="#441642"/>
<path d="M77.3861 114.509L77.7381 114.644C77.6614 114.856 77.5757 115.059 77.4809 115.258L77.1289 115.122C77.2285 114.924 77.3144 114.719 77.3861 114.509Z" fill="#421540"/>
<path d="M77.129 115.122L77.4809 115.258C77.3722 115.478 77.2516 115.691 77.1199 115.898L76.7679 115.763C76.904 115.559 77.0246 115.345 77.129 115.122Z" fill="#3F143E"/>
<path d="M76.7679 115.763L77.1199 115.898C76.9504 116.153 76.7634 116.396 76.5604 116.625L76.2129 116.49C76.4156 116.261 76.6011 116.019 76.7679 115.763Z" fill="#3D133B"/>
<path d="M76.2128 116.49L76.5603 116.625C75.355 117.906 73.7425 118.729 71.998 118.954L71.646 118.818C73.3924 118.595 75.0069 117.772 76.2128 116.49Z" fill="#3B1339"/>
<path d="M71.7183 106.332C74.2589 107.045 77.7517 108.213 77.7247 112.523C77.7247 115.777 75.2562 118.259 71.6461 118.841V119.048C71.6461 119.557 71.4451 120.046 71.0868 120.408C70.7285 120.769 70.2418 120.975 69.7327 120.98C69.4817 120.98 69.2331 120.931 69.0014 120.835C68.7697 120.738 68.5595 120.597 68.3831 120.418C68.2067 120.239 68.0676 120.028 67.9739 119.795C67.8802 119.562 67.8338 119.313 67.8374 119.062V118.796C66.0965 118.561 64.4965 117.713 63.3247 116.404C62.9577 115.965 62.7247 115.431 62.6535 114.863C62.5822 114.296 62.6758 113.72 62.9231 113.204C63.1652 112.667 63.557 112.211 64.0517 111.891C64.5463 111.571 65.1227 111.4 65.7119 111.399H67.5486H67.878C65.3013 110.668 61.9168 109.477 61.9393 105.136C61.9393 101.927 64.331 99.5174 67.9457 98.9037V98.6781C67.948 98.1697 68.1498 97.6825 68.5076 97.3213C68.8654 96.9601 69.3507 96.7537 69.8591 96.7467C70.1095 96.7478 70.3573 96.7984 70.5882 96.8955C70.8191 96.9926 71.0286 97.1342 71.2046 97.3124C71.3807 97.4905 71.5199 97.7017 71.6142 97.9337C71.7085 98.1657 71.7562 98.4141 71.7544 98.6645V98.9037C73.4438 99.1265 74.9946 99.9557 76.1182 101.237C76.4735 101.674 76.6971 102.203 76.7626 102.762C76.8281 103.322 76.7329 103.888 76.4882 104.396C76.246 104.932 75.8547 105.387 75.3611 105.707C74.8674 106.027 74.2922 106.198 73.7039 106.201H71.8627H71.7093L71.7183 106.332ZM70.5405 117.785C74.453 117.595 76.601 115.213 76.6145 112.509C76.6145 108.629 73.2481 107.916 70.5991 107.175L70.6217 103.295C70.9817 103.426 71.2938 103.663 71.5175 103.975C71.7412 104.286 71.8662 104.658 71.8762 105.041H73.7174C74.0807 105.039 74.4363 104.937 74.7445 104.744C75.0526 104.552 75.301 104.278 75.4618 103.952C75.6226 103.626 75.6893 103.262 75.6546 102.9C75.6199 102.539 75.4851 102.194 75.2653 101.905C74.2725 100.691 72.6795 100 70.6398 99.8424V98.6149C70.6416 98.5109 70.6226 98.4075 70.5838 98.3109C70.5451 98.2143 70.4875 98.1265 70.4144 98.0525C70.3412 97.9785 70.254 97.9199 70.1579 97.8801C70.0617 97.8402 69.9586 97.8201 69.8546 97.8207C69.6427 97.8207 69.4396 97.9048 69.2898 98.0546C69.14 98.2044 69.0558 98.4076 69.0558 98.6194V99.8469C65.6848 100.086 63.0765 101.95 63.0585 105.077C63.0585 109.008 66.3527 109.748 68.9971 110.438V114.391C68.585 114.266 68.224 114.011 67.9673 113.665C67.7106 113.319 67.5718 112.9 67.5711 112.469H65.7074C65.3425 112.472 64.9858 112.577 64.6774 112.772C64.3691 112.968 64.1215 113.245 63.9624 113.574C63.8033 113.902 63.7392 114.268 63.7772 114.631C63.8153 114.994 63.9539 115.339 64.1776 115.628C65.2246 116.873 66.9258 117.591 68.9565 117.762V119.017C68.9553 119.121 68.9749 119.224 69.0141 119.321C69.0533 119.418 69.1114 119.505 69.1849 119.579C69.2584 119.653 69.3459 119.712 69.4423 119.752C69.5387 119.791 69.642 119.812 69.7463 119.811C69.8511 119.81 69.9549 119.789 70.0516 119.748C70.1483 119.708 70.236 119.648 70.3097 119.574C70.3835 119.499 70.4418 119.411 70.4814 119.314C70.521 119.217 70.5411 119.113 70.5405 119.008V117.78" fill="#5F1E5C"/>
<path style="mix-blend-mode:multiply" opacity="0.4" d="M51.5421 65.0857C56.3797 63.0099 60.8834 56.814 66.3482 56.8501C74.2499 56.8952 80.4278 61.638 87.5849 64.6796C94.9947 67.8384 101.624 67.4458 107.405 62.4999C110.753 59.6344 111.8 52.2607 111.037 47.4186C109.756 39.2958 100.595 37.8291 94.381 36.7551C89.9585 35.9925 85.4368 35.8075 80.9558 35.6721C72.8329 35.4239 64.2002 35.812 56.5331 39.1333C52.0205 41.0828 47.1423 44.2191 45.0123 49.0612C42.8101 54.1019 42.8327 68.8267 51.5421 65.0857Z" fill="url(#paint2_linear)"/>
<path d="M51.0547 64.2779C55.8561 62.1073 60.2515 55.8257 65.7163 55.7535C73.6226 55.6497 79.8816 60.2662 87.0884 63.1678C94.5569 66.1778 101.177 65.6588 106.872 60.6001C110.171 57.6714 111.091 50.2796 110.243 45.4511C108.826 37.3689 99.6336 36.0737 93.4152 35.1215C88.9792 34.4446 84.453 34.3499 79.9719 34.3002C71.8491 34.2145 63.2118 34.7515 55.6034 38.2353C51.1223 40.275 46.2938 43.5061 44.227 48.4024C42.1286 53.4701 42.4219 68.1904 51.0547 64.2779Z" fill="#71246E"/>
<path d="M52.8552 54.5035C57.1836 49.9421 62.356 46.264 68.0855 43.673L66.2308 41.8229C64.651 44.8907 62.8785 47.8555 60.9239 50.6993C60.1748 51.8184 61.664 53.2851 62.7786 52.5495C67.4647 49.4886 72.6135 47.2029 78.0269 45.7805L76.9845 43.303C73.932 44.9616 71.3214 47.3276 69.3716 50.2029C68.7308 51.1551 69.8229 52.5856 70.9014 52.193C75.78 50.4506 80.9154 49.5355 86.0956 49.4854C87.8375 49.4854 87.842 46.7778 86.0956 46.7778C80.6715 46.8269 75.2931 47.7754 70.1794 49.5847L71.7092 51.5747C73.4182 49.0962 75.696 47.0629 78.3519 45.6451C79.7057 44.905 78.8031 42.7795 77.3094 43.1721C71.667 44.6601 66.2995 47.043 61.4113 50.23L63.2615 52.0847C65.2254 49.2401 67.007 46.2738 68.5954 43.2037C68.7486 42.9451 68.8114 42.6428 68.7738 42.3446C68.7362 42.0464 68.6004 41.7691 68.3879 41.5566C68.1753 41.344 67.8981 41.2083 67.5999 41.1707C67.3016 41.1331 66.9994 41.1958 66.7407 41.349C60.7999 44.0418 55.4365 47.859 50.9464 52.5901C49.755 53.8582 51.6639 55.7806 52.8597 54.5035H52.8552Z" fill="#962C96"/>
<path d="M91.3543 48.9527C91.6724 43.0396 88.7891 38.077 84.9143 37.8685C81.0394 37.66 77.6402 42.2845 77.3221 48.1976C77.0039 54.1107 79.8872 59.0733 83.7621 59.2818C87.6369 59.4903 91.0361 54.8658 91.3543 48.9527Z" fill="white"/>
<path d="M86.949 48.717C87.1141 45.6485 85.6178 43.0732 83.6069 42.965C81.5961 42.8568 79.8321 45.2567 79.667 48.3252C79.5019 51.3937 80.9982 53.969 83.009 54.0772C85.0199 54.1854 86.7838 51.7856 86.949 48.717Z" fill="#330E33"/>
<path d="M85.3576 48.1188C86.0275 47.9738 86.3911 47.027 86.1697 46.0039C85.9483 44.9808 85.2258 44.2689 84.5559 44.4139C83.8861 44.5589 83.5225 45.5057 83.7439 46.5288C83.9653 47.5519 84.6878 48.2638 85.3576 48.1188Z" fill="white"/>
<g style="mix-blend-mode:multiply" opacity="0.4">
<path d="M105.342 61.083C99.7736 65.1444 93.2798 65.4512 85.9377 62.8474C78.7174 60.2842 72.332 56.2093 64.701 55.8979H64.8816C73.4556 55.2075 80.7301 59.3636 88.8529 61.7283C95.0623 63.5198 100.586 63.4431 105.342 61.083Z" fill="#71246E"/>
</g>
<g style="mix-blend-mode:multiply" opacity="0.4">
<path d="M55.5944 38.2353C57.1158 37.5423 58.684 36.9572 60.2875 36.4844C59.8904 36.6423 59.4978 36.8138 59.1052 36.9898C54.6332 39.0295 49.8046 42.2606 47.7558 47.1568C45.856 51.7146 45.8921 64.0749 52.2008 63.6823C51.8297 63.9011 51.447 64.1 51.0546 64.2779C42.4083 68.1904 42.1285 53.4475 44.2495 48.4023C46.2937 43.5061 51.1223 40.275 55.5944 38.2353Z" fill="#71246E"/>
</g>
<path d="M83.546 32.1432C82.5126 32.3282 81.2896 32.5312 80.5315 31.6919C80.2655 31.3307 80.1178 30.896 80.1089 30.4475C80.1001 29.999 80.2303 29.5588 80.4819 29.1874C80.9929 28.5159 81.709 28.0294 82.5216 27.802C83.9677 27.3195 85.4984 27.143 87.0163 27.2836C88.5343 27.4242 90.0065 27.8789 91.3394 28.6188C92.287 29.1287 96.732 31.5204 95.464 33.1314C94.7464 34.034 93.2076 33.0547 92.3818 32.7885C91.026 32.3543 89.6259 32.0727 88.2076 31.9491C86.6519 31.81 85.0847 31.8752 83.546 32.1432Z" fill="black"/>
<path d="M54.9536 35.5954C55.8245 35.4013 56.8624 35.1441 57.0565 34.2732C57.2099 33.5737 56.6774 32.7749 56.0005 32.3959C55.33 32.0639 54.5775 31.9338 53.8344 32.0213C52.5788 32.0991 51.3551 32.4495 50.2485 33.048C49.1419 33.6465 48.1789 34.4788 47.4264 35.4871C46.9345 36.173 44.5609 39.386 46.2351 40.1667C47.1827 40.618 47.9228 39.386 48.4508 38.9167C49.313 38.1468 50.2644 37.4832 51.2848 36.9401C52.4437 36.3335 53.6771 35.8813 54.9536 35.5954Z" fill="black"/>
<path d="M83.3294 56.2544C86.9396 56.656 90.3105 56.3266 92.7248 55.4782C92.8208 55.9233 92.833 56.3824 92.7609 56.832C92.2375 59.9097 87.8241 61.7283 82.9052 60.8934C77.9864 60.0586 74.4169 56.8636 74.9404 53.7995C77.5546 55.1452 80.4021 55.9784 83.3294 56.2544Z" fill="#71246E"/>
<path d="M60.8681 50.334C61.1093 45.8519 58.9242 42.0903 55.9875 41.9323C53.0509 41.7743 50.4747 45.2797 50.2336 49.7618C49.9924 54.2439 52.1775 58.0055 55.1141 58.1635C58.0508 58.3215 60.6269 54.8161 60.8681 50.334Z" fill="white"/>
<path d="M57.5219 50.1566C57.6471 47.8297 56.5139 45.8769 54.9908 45.795C53.4678 45.713 52.1316 47.5329 52.0064 49.8598C51.8812 52.1868 53.0144 54.1395 54.5374 54.2215C56.0605 54.3034 57.3967 52.4835 57.5219 50.1566Z" fill="#330E33"/>
<path d="M56.3217 49.7002C56.8308 49.5901 57.1076 48.8728 56.94 48.0982C56.7724 47.3236 56.2238 46.7849 55.7147 46.8951C55.2056 47.0053 54.9287 47.7225 55.0963 48.4972C55.264 49.2718 55.8126 49.8104 56.3217 49.7002Z" fill="white"/>
<path d="M56.1631 55.7715C54.0831 56.237 51.9174 56.1499 49.8815 55.5188C49.8676 55.8872 49.9102 56.2555 50.0078 56.6109C50.6892 59.0793 53.794 60.37 56.9483 59.499C60.1027 58.6281 62.1018 55.925 61.4204 53.4565C59.8764 54.6344 58.0744 55.4279 56.1631 55.7715Z" fill="#71246E"/>
<path d="M68.5955 58.3347C68.5142 59.851 62.8869 58.8718 62.8869 58.8718C62.5269 58.8525 62.1742 58.7625 61.849 58.6069C61.5237 58.4514 61.2323 58.2333 60.9914 57.9651C60.5048 57.4235 60.2532 56.7107 60.2921 55.9836C60.331 55.2566 60.6572 54.5747 61.1988 54.0881C61.7404 53.6015 62.4532 53.35 63.1802 53.3889C64.692 53.4701 68.6722 56.8185 68.5955 58.3347Z" fill="#D9CEF7"/>
<path d="M68.5458 57.9918C67.377 56.3763 64.5431 54.332 63.2885 54.2643C62.6209 54.2141 61.9566 54.3985 61.4104 54.7857C60.8642 55.1729 60.4703 55.7386 60.2966 56.3853C60.2831 56.2517 60.2831 56.1172 60.2966 55.9836C60.3363 55.2577 60.662 54.577 61.2025 54.0906C61.7429 53.6043 62.4541 53.352 63.1802 53.3889C64.5882 53.4656 68.1442 56.3717 68.5458 57.9918Z" fill="#E8E2FA"/>
<path d="M84.7599 62.166C84.805 64.5803 83.2075 68.5063 80.4232 68.5605C77.6389 68.6146 72.9863 62.9557 72.9412 60.5414C72.8961 58.1272 76.8401 57.9421 79.629 57.888C82.4178 57.8338 84.7102 59.7472 84.7599 62.166Z" fill="#DACFF8"/>
<path d="M82.7878 67.4143C83.3949 66.0195 83.7023 64.5129 83.6903 62.9918C83.6774 62.3269 83.5336 61.671 83.2672 61.0616C83.0007 60.4522 82.6168 59.9013 82.1374 59.4404C81.658 58.9794 81.0925 58.6174 80.4732 58.375C79.8538 58.1327 79.1928 58.0147 78.5278 58.0279C77.5896 58.0362 76.6525 58.0965 75.7209 58.2084C77.006 57.9903 78.3074 57.8831 79.6109 57.888C82.3952 57.8338 84.6922 59.7517 84.7373 62.166C84.7339 64.0919 84.0425 65.9532 82.7878 67.4143Z" fill="#E8E2FA"/>
<path d="M65.22 71.584C66.6776 73.7636 68.952 75.3927 72.499 75.0316C76.5378 74.621 78.7897 71.9675 80.0487 69.0794C81.0914 66.4978 81.6321 63.7409 81.6417 60.9566C81.6417 60.9566 75.8835 63.7229 62.6252 62.897C62.6252 62.897 62.8103 67.9828 65.22 71.584Z" fill="black"/>
<path d="M65.22 71.584C66.6776 73.7636 68.952 75.3927 72.4989 75.0316C76.5378 74.621 78.7896 71.9675 80.0486 69.0794C80.0486 69.0794 75.8338 68.8448 73.0404 70.9612C71.787 70.4104 70.4166 70.179 69.0518 70.2877C67.687 70.3964 66.3704 70.8417 65.22 71.584Z" fill="#AF2D27"/>
<g style="mix-blend-mode:multiply" opacity="0.4">
<path d="M76.8402 75.0632C76.6533 76.2691 76.0398 77.3679 75.1112 78.1596C74.1826 78.9514 73.0007 79.3836 71.7805 79.3775C70.5602 79.3715 69.3826 78.9277 68.4619 78.1269C67.5412 77.326 66.9385 76.2213 66.7634 75.0136C67.3733 75.7583 68.1401 76.3592 69.009 76.7734C69.8779 77.1875 70.8276 77.4047 71.7902 77.4094C72.7527 77.4142 73.7045 77.2064 74.5774 76.8008C75.4504 76.3952 76.2231 75.8019 76.8402 75.0632Z" fill="#DACFF8"/>
</g>
<defs>
<linearGradient id="paint0_linear" x1="0.00274005" y1="93.8269" x2="19.9713" y2="93.8269" gradientUnits="userSpaceOnUse">
<stop stop-color="#CAC1F4"/>
<stop offset="1" stop-color="#E7DCF5"/>
</linearGradient>
<linearGradient id="paint1_linear" x1="512.916" y1="4419.5" x2="1530.66" y2="4419.5" gradientUnits="userSpaceOnUse">
<stop stop-color="#CAC1F4"/>
<stop offset="1" stop-color="#E7DCF5"/>
</linearGradient>
<linearGradient id="paint2_linear" x1="-16277.9" y1="10919.1" x2="-6327.21" y2="11886" gradientUnits="userSpaceOnUse">
<stop stop-color="#CAC1F4"/>
<stop offset="1" stop-color="#E7DCF5"/>
</linearGradient>
</defs>
</svg>
