<svg width="153" height="221" viewBox="0 0 153 221" fill="none" xmlns="http://www.w3.org/2000/svg">
<path d="M67.8744 115.208L67.5468 116.829L67.2443 118.388C67.0637 119.43 66.8662 120.451 66.694 121.484C66.3495 123.538 66.047 125.588 65.7572 127.63C65.6227 128.651 65.4799 129.672 65.3623 130.692C65.2447 131.713 65.106 132.734 64.9926 133.751C64.7658 135.792 64.5529 137.831 64.3541 139.867C64.1566 141.905 63.934 143.938 63.7155 145.971C63.4971 148.004 63.2744 150.038 63.0392 152.067L61.6529 164.249L60.1741 176.398L58.6534 188.535L57.1033 200.663C56.5824 204.704 56.0488 208.741 55.5699 212.783L47.2605 211.825C47.6806 207.805 48.0503 203.78 48.3737 199.747C48.6972 195.714 49.0123 191.69 49.2139 187.653L49.5752 181.599L49.8567 175.542C49.9491 173.525 50.0415 171.504 50.1129 169.488L50.2978 163.43C50.3818 159.389 50.5162 155.356 50.5288 151.319C50.5288 149.298 50.5624 147.282 50.5582 145.265C50.554 143.249 50.5582 141.233 50.5582 139.216C50.5582 135.187 50.4448 131.159 50.1381 127.138C49.9953 125.126 49.7895 123.118 49.5374 121.118C49.4114 120.119 49.2601 119.115 49.1173 118.127L48.8568 116.645C48.756 116.17 48.6636 115.649 48.546 115.225L67.8744 115.208Z" fill="#8A001C"/>
<path d="M87.0811 118.711V119.22V119.64V120.48V122.06C87.1105 123.106 87.0811 124.114 87.1147 125.139C87.1147 127.164 87.1861 129.163 87.2239 131.146C87.3331 135.12 87.4633 139.04 87.644 142.947C87.8246 146.853 87.8666 150.752 87.8708 154.646C87.8918 156.591 87.8708 158.532 87.8708 160.473C87.8708 162.414 87.8708 164.354 87.812 166.295C87.6776 174.05 87.3667 181.776 86.9718 189.484C86.9004 191.413 86.745 193.337 86.6316 195.265L86.2829 201.037C86.0098 204.881 85.72 208.72 85.4847 212.564L77.1375 212.043C77.2929 208.263 77.4399 204.461 77.5156 200.671C77.5156 196.891 77.6038 193.11 77.5156 189.304L77.3979 183.624C77.3601 181.734 77.2425 179.843 77.1627 177.953C77.0829 176.062 76.9988 174.172 76.877 172.29L76.4569 166.64C76.3351 164.758 76.1292 162.859 75.9654 161.002L75.7008 158.187C75.6167 157.251 75.4865 156.318 75.3815 155.385C74.9614 151.642 74.4489 147.92 73.9028 144.215C73.3786 140.519 72.6635 136.852 71.7603 133.23C71.3108 131.423 70.7773 129.646 70.2017 127.899C69.9035 127.038 69.5926 126.16 69.2649 125.328L68.7482 124.089L68.471 123.513C68.4247 123.416 68.3785 123.311 68.3365 123.232L68.2063 123.038L87.0811 118.711Z" fill="#8A001C"/>
<path d="M100.209 45.4934C100.176 -9.53873 44.3032 -3.44739 15.3504 9.54188C15.237 9.59649 16.9762 9.43265 20.1184 9.26882C24.7689 9.02096 26.966 10.8274 26.067 11.0542C22.8767 11.9491 19.7369 13.0148 16.6611 14.2469C6.13776 19.3132 -0.634134 24.5896 0.567331 26.6144C0.911807 26.3624 1.26889 26.1187 1.62176 25.8709C2.39093 25.3829 3.19076 24.9451 4.01629 24.5602C7.43082 22.9265 11.2872 22.4586 14.9933 23.2285C16.8099 23.623 18.5322 24.3679 20.0638 25.4214C20.8119 25.9474 21.4995 26.5546 22.1139 27.232C22.7461 27.9167 23.2601 28.7017 23.6346 29.5551L23.6934 29.6979C23.717 29.751 23.723 29.8102 23.7106 29.867C23.6981 29.9237 23.668 29.975 23.6244 30.0134C23.5808 30.0518 23.5262 30.0753 23.4683 30.0806C23.4105 30.0858 23.3525 30.0724 23.3027 30.0424C22.028 29.3346 20.6587 28.8126 19.2362 28.4923C17.8225 28.1397 16.3706 27.9633 14.9135 27.9671C13.906 27.9683 12.9002 28.0497 11.9056 28.2108L12.1493 28.299C40.6022 33.9871 39.9174 67.25 40.1611 67.8549C47.2732 80.3527 69.2945 93.6402 80.3681 92.8294C88.2029 92.2539 98.1255 74.4798 99.1211 68.3254C100.209 62.6794 100.213 52.4333 100.209 45.4934Z" fill="#F9B800"/>
<path d="M99.1251 68.3338C98.3731 72.9801 92.5296 84.2554 86.3375 89.7586C91.6348 83.8773 96.2138 74.6772 96.8734 70.5981C97.9572 64.9521 97.9614 54.7102 97.9572 47.7661C97.9278 -3.61122 49.2265 -1.7082 19.1856 9.34023C16.6315 9.48727 15.241 9.6133 15.3418 9.56709C44.3282 -3.42218 100.201 -9.51353 100.201 45.5144C100.213 52.4375 100.209 62.6794 99.1251 68.3338Z" fill="#F8CE00"/>
<g style="mix-blend-mode:multiply" opacity="0.4">
<path d="M97.1465 49.2785C96.1635 50.1564 94.857 50.5009 93.1724 50.0136C89.442 48.9298 87.455 44.9095 83.8002 44.4978C83.3815 44.4488 82.9585 44.4488 82.5399 44.4978C76.0452 45.2288 70.7227 54.0507 64.8456 56.5923C59.0861 59.0708 54.8894 60.4529 48.5544 54.0003C46.0716 51.4797 44.7987 44.8087 45.0718 40.9774C45.5339 34.5752 52.9696 32.647 58.0065 31.2859C61.6162 30.3819 65.2818 29.7181 68.9793 29.2988C75.6588 28.4167 96.3567 30.7314 98.4656 34.3148C100.154 37.1966 100.516 46.3084 97.1465 49.2785Z" fill="#F9B800"/>
</g>
<g style="mix-blend-mode:multiply" opacity="0.4">
<path d="M82.3467 92.1699C81.7422 92.5395 81.0609 92.7651 80.3554 92.8294C69.286 93.6402 56.2127 69.216 40.1483 67.8549C39.9173 67.25 40.5978 33.9829 12.145 28.299C12.0651 28.2696 11.9853 28.236 11.9013 28.2108C12.8973 28.0499 13.9045 27.9684 14.9134 27.9671C16.369 27.9634 17.8196 28.1397 19.2319 28.4923C20.6555 28.8133 22.0261 29.3353 23.3026 30.0424C23.3524 30.0724 23.4104 30.0858 23.4682 30.0806C23.526 30.0753 23.5807 30.0518 23.6243 30.0134C23.6678 29.975 23.698 29.9237 23.7104 29.867C23.7229 29.8102 23.7169 29.751 23.6933 29.6979L23.6303 29.5551C23.2584 28.7013 22.7458 27.916 22.1138 27.232C21.5005 26.5534 20.8129 25.946 20.0637 25.4214C18.533 24.3663 16.8104 23.6213 14.9932 23.2285C11.2871 22.4586 7.4307 22.9265 4.01617 24.5602C3.18891 24.9444 2.38763 25.3822 1.61744 25.8709C1.26877 26.1145 0.911689 26.3582 0.567213 26.6102C-0.0503237 25.5726 1.4368 23.6696 4.45307 21.3843C17.959 16.633 24.6721 24.2577 25.9744 25.4256C49.4996 46.5226 45.828 67.2542 46.0674 67.8549C60.275 69.0606 72.1426 88.2967 82.3467 92.1699Z" fill="#F9B800"/>
</g>
<path d="M103.385 97.7782C103.385 97.7782 108.884 89.2965 109.514 90.0779C110.144 90.8592 117.748 107.012 129.678 100.71C140.647 94.9089 138.345 75.4124 140.815 72.0433C143.445 68.4515 149.074 65.389 151.565 66.8803C154.056 68.3717 153.145 71.1275 150.015 71.808C146.885 72.4886 144.735 74.1017 144.428 75.3872C144.121 76.6727 148.171 99.9374 131.787 109.499C123.096 114.573 112.261 108.108 103.385 97.7782Z" fill="#F9B800"/>
<path d="M136.177 93.2328C134.694 97.1984 132.46 100.677 128.931 102.542C117.009 108.843 109.401 92.695 108.766 91.9137C108.313 91.3465 105.267 95.6945 103.65 98.0848C103.557 97.984 103.469 97.8832 103.381 97.7782C103.381 97.7782 108.88 89.3007 109.51 90.0821C110.14 90.8634 117.748 107.016 129.674 100.71C132.758 99.0805 134.795 96.3667 136.177 93.2328Z" fill="#F8CE00"/>
<path d="M144.419 76.03C144.541 78.7816 145.68 89.1873 141.601 98.3495C145.184 88.5949 143.474 78.1094 143.701 77.223C143.83 76.7682 144.078 76.3563 144.419 76.03Z" fill="#F8CE00"/>
<path d="M152.985 69.1446C152.792 68.6986 152.457 68.3291 152.032 68.0944C149.603 66.6367 143.731 68.3675 141.004 71.7912C143.701 68.3128 149.129 65.4226 151.561 66.8803C152.59 67.4937 153.04 68.3338 152.985 69.1446Z" fill="#F8CE00"/>
<path d="M98.1253 74.4798C105.981 75.9711 115.168 92.5438 115.168 92.5438L103.078 101.446C103.078 101.446 92.6767 88.4227 90.5132 83.3564C88.4631 78.5421 94.8233 73.8497 98.1253 74.4798Z" fill="#8A001C"/>
<g style="mix-blend-mode:multiply" opacity="0.4">
<g style="mix-blend-mode:multiply" opacity="0.4">
<path d="M138.887 103.08C136.995 105.695 134.575 107.883 131.783 109.503C123.083 114.578 112.261 108.112 103.385 97.7782C103.385 97.7782 106.746 92.611 108.51 90.7164C106.83 92.9639 104.96 95.8415 104.96 95.8415C113.837 106.172 124.658 112.645 133.358 107.562C135.422 106.363 137.288 104.851 138.887 103.08Z" fill="#F9B800"/>
</g>
<g style="mix-blend-mode:multiply" opacity="0.4">
<path d="M140.811 72.0433C141.215 71.4964 141.662 70.9823 142.147 70.5057C140.298 74.2866 141.483 89.12 134.447 96.3624C139.962 88.3471 138.79 74.7991 140.811 72.0433Z" fill="#F9B800"/>
</g>
<g style="mix-blend-mode:multiply" opacity="0.4">
<path d="M152.956 69.3715C152.771 70.4385 151.725 71.4383 150.015 71.808C148.582 72.0999 147.22 72.6708 146.007 73.4884C146.005 73.4773 146.005 73.4659 146.007 73.4548C146.31 72.1693 148.457 70.5604 151.59 69.8756C152.067 69.7737 152.527 69.6039 152.956 69.3715Z" fill="#F9B800"/>
</g>
</g>
<path d="M109.653 96.0306C110.603 94.7156 111.155 93.155 111.243 91.5349C111.331 89.9148 110.951 88.3036 110.148 86.8935C108.394 83.7357 106.367 80.7374 104.091 77.933C109.972 83.2177 115.156 92.527 115.156 92.527L108.812 97.1984L109.653 96.0306Z" fill="#8A001C"/>
<path d="M109.653 96.0306C110.603 94.7156 111.155 93.155 111.243 91.5349C111.331 89.9148 110.951 88.3036 110.148 86.8935C108.394 83.7357 106.367 80.7374 104.091 77.933C109.972 83.2177 115.156 92.527 115.156 92.527L108.812 97.1984L109.653 96.0306Z" fill="#A0001F"/>
<g style="mix-blend-mode:multiply" opacity="0.4">
<g style="mix-blend-mode:multiply" opacity="0.4">
<path d="M108.951 97.1018L103.07 101.425C103.07 101.425 92.6641 88.4017 90.5048 83.3354C88.4548 78.5421 94.8108 73.8497 98.1169 74.4798C99.5971 74.8217 100.988 75.4747 102.196 76.3954C102.057 81.8902 102.456 87.5153 103.376 89.662C104.448 92.1489 106.817 94.9257 108.951 97.1018Z" fill="#8A001C"/>
</g>
</g>
<path d="M45.1642 120.005C46.6933 111.183 38.0982 68.5859 40.1609 67.8508C43.6855 65.284 51.9949 64.1413 61.384 63.7464C68.1349 63.4608 75.4445 87.4229 81.9349 87.6581C86.2787 87.8178 90.2569 64.1749 93.4581 64.3808C98.1883 64.6875 101.221 64.9605 101.221 64.9605C100.163 105.915 89.9461 128.042 80.2545 133.062C70.2227 138.258 41.9211 138.708 45.1642 120.005Z" fill="#A0001F"/>
<path d="M45.1642 120.005C46.6933 111.183 38.0982 68.5859 40.1609 67.8507C43.6855 65.284 68.4163 64.7085 58.645 71.4215C58.645 71.4215 75.4487 87.4229 81.9433 87.6581C86.2871 87.8178 97.6716 70.5099 97.6716 70.5099C87.8036 68.4095 101.23 64.9605 101.23 64.9605C100.171 105.915 89.9545 128.042 80.2629 133.062C70.2227 138.258 41.9211 138.708 45.1642 120.005Z" fill="#A0001F"/>
<path d="M100.31 66.9055C98.478 102.979 89.9081 124.248 81.166 132.049C89.5301 123.71 97.4698 102.534 99.0158 67.2416C99.7845 67.0274 100.31 66.9055 100.31 66.9055Z" fill="#C5002D"/>
<path d="M81.7628 87.6581C75.1463 87.1498 58.6577 71.4341 58.6577 71.4341C68.4374 64.7127 43.7024 65.2966 40.1736 67.8591C43.6982 65.2966 52.0076 64.1539 61.4009 63.7548C68.0635 63.4692 75.3101 86.9944 81.7628 87.6581Z" fill="#5E0016"/>
<path d="M97.6632 70.5141C97.6632 70.5141 86.5476 87.4229 82.0946 87.6581C86.3753 87.238 90.2948 64.1833 93.4371 64.385C98.1715 64.6874 101.205 64.9605 101.205 64.9605C101.205 64.9605 87.8079 68.4095 97.6632 70.5141Z" fill="#5E0016"/>
<g style="mix-blend-mode:multiply" opacity="0.4">
<path d="M92.7271 64.7127C89.6646 67.5525 85.9552 87.8177 81.9349 87.6623C81.5947 87.6472 81.2595 87.5748 80.9435 87.4481C84.5521 82.4868 87.9926 66.9938 90.3368 65.6873C91.087 65.2582 91.8907 64.9305 92.7271 64.7127Z" fill="#F9B800"/>
</g>
<g style="mix-blend-mode:multiply" opacity="0.4">
<path d="M77.4399 134.238C65.7865 138.204 42.1857 137.179 45.1641 120.009C46.6891 111.188 38.094 68.5901 40.1566 67.8549C41.6085 66.9023 43.2147 66.2086 44.9037 65.8049C44.9877 73.9169 52.1545 109.759 50.8774 117.833C48.5207 132.738 65.1942 135.969 77.4399 134.238Z" fill="#A0001F"/>
</g>
<path d="M93.3993 48.2828C89.1311 47.0225 87.0727 42.0781 82.4264 42.5864C75.7049 43.3215 70.2143 52.4669 64.144 55.0799C58.1955 57.6383 53.8643 59.0666 47.3403 52.3997C44.7735 49.7868 43.4586 42.9098 43.7443 38.9568C44.219 32.3445 51.8983 30.3533 57.099 28.946C60.8001 27.9461 64.6313 27.4 68.4415 26.8959C75.3395 25.9843 96.718 28.3746 98.8941 32.0756C101.116 35.9153 101.087 50.5135 93.3993 48.2828Z" fill="#A0001F"/>
<path d="M67.4082 53.0929C66.4047 53.8851 65.3086 54.5523 64.1441 55.0799C58.1956 57.6383 53.8644 59.0666 47.3404 52.3997C44.7778 49.7868 43.4629 42.9098 43.7444 38.9568C44.0384 34.9155 47.0169 32.6008 50.4659 31.0926C49.5737 31.7745 48.8369 32.6386 48.3045 33.6273C47.7721 34.616 47.4563 35.7067 47.3782 36.8269C47.0925 40.7716 48.4074 47.6527 50.9742 50.2699C57.3722 56.7687 61.6571 55.5462 67.4082 53.0929Z" fill="#A0001F"/>
<path d="M97.5037 47.5267C96.487 48.4299 95.1385 48.7869 93.3994 48.2828C89.5471 47.1654 87.4929 43.0149 83.7372 42.5864C83.3073 42.538 82.8733 42.538 82.4433 42.5864C75.7219 43.3215 70.2313 52.4669 64.1609 55.0799C58.2124 57.6383 53.8812 59.0666 47.3572 52.3997C44.7946 49.7868 43.4798 42.9098 43.7612 38.9568C44.2401 32.3445 51.9194 30.3533 57.1202 28.946C60.8212 27.9461 64.6524 27.4 68.4627 26.8959C75.3606 25.9843 96.7391 28.3746 98.9152 32.0756C100.608 35.0457 100.982 44.4558 97.5037 47.5267Z" fill="#A0001F"/>
<path d="M93.3446 44.2877C95.732 44.2877 97.6674 41.3349 97.6674 37.6923C97.6674 34.0497 95.732 31.0968 93.3446 31.0968C90.9572 31.0968 89.0219 34.0497 89.0219 37.6923C89.0219 41.3349 90.9572 44.2877 93.3446 44.2877Z" fill="white"/>
<path d="M93.983 41.1161C95.222 41.1161 96.2263 39.5832 96.2263 37.6923C96.2263 35.8014 95.222 34.2685 93.983 34.2685C92.7441 34.2685 91.7397 35.8014 91.7397 37.6923C91.7397 39.5832 92.7441 41.1161 93.983 41.1161Z" fill="#3C190A"/>
<path d="M95.2272 37.3774C95.6345 37.2661 95.8273 36.6733 95.6578 36.0534C95.4884 35.4334 95.0208 35.0212 94.6135 35.1325C94.2062 35.2439 94.0134 35.8367 94.1828 36.4566C94.3523 37.0765 94.8199 37.4888 95.2272 37.3774Z" fill="white"/>
<path d="M67.572 46.5184C70.7204 46.5184 73.2727 42.6233 73.2727 37.8183C73.2727 33.0134 70.7204 29.1182 67.572 29.1182C64.4236 29.1182 61.8713 33.0134 61.8713 37.8183C61.8713 42.6233 64.4236 46.5184 67.572 46.5184Z" fill="white"/>
<path d="M68.412 42.3343C70.0454 42.3343 71.3695 40.3124 71.3695 37.8183C71.3695 35.3242 70.0454 33.3023 68.412 33.3023C66.7787 33.3023 65.4546 35.3242 65.4546 37.8183C65.4546 40.3124 66.7787 42.3343 68.412 42.3343Z" fill="#3C190A"/>
<path d="M70.0576 37.4061C70.5947 37.2593 70.8486 36.4763 70.6247 35.6572C70.4008 34.8381 69.7838 34.2931 69.2467 34.4399C68.7096 34.5867 68.4557 35.3698 68.6796 36.1889C68.9036 37.008 69.5205 37.553 70.0576 37.4061Z" fill="white"/>
<g style="mix-blend-mode:multiply" opacity="0.4">
<path d="M69.8111 51.11C67.9417 52.7904 66.0723 54.2649 64.1441 55.0967C58.1956 57.6551 53.8644 59.0834 47.3404 52.4165C44.7778 49.8036 43.4629 42.9266 43.7444 38.9736C44.0426 34.8483 47.1471 32.5209 50.7011 30.9918C49.8189 32.1717 49.3005 33.5836 49.2098 35.0541C48.9283 39.003 50.2432 45.8799 52.8058 48.4971C59.3508 55.1639 63.682 53.7356 69.6305 51.1773L69.8111 51.11Z" fill="#A0001F"/>
</g>
<g style="mix-blend-mode:multiply" opacity="0.4">
<path d="M97.5035 47.5267C96.4869 48.4299 95.1384 48.7869 93.3992 48.2828C89.5469 47.1654 87.4927 43.0149 83.7371 42.5864C84.5168 42.2828 85.3333 42.0837 86.1652 41.994C90.866 41.5067 92.9455 46.279 97.264 47.4552L97.5035 47.5267Z" fill="#A0001F"/>
</g>
<path d="M69.8068 117.598C56.9982 117.598 47.0882 114.271 44.8617 109.448C44.1853 109.373 43.6854 110.352 43.6854 110.994C43.6854 116.716 55.3808 121.358 69.8068 121.358C84.2328 121.358 95.9281 116.716 95.9281 110.994C95.9281 110.352 95.298 109.894 95.0165 109.284C92.7859 114.124 82.6154 117.598 69.8068 117.598Z" fill="black"/>
<g style="mix-blend-mode:multiply" opacity="0.4">
<path d="M94.5293 110.763C93.9076 112.684 93.2579 114.487 92.5801 116.17C88.5598 119.841 79.3388 122.408 68.6096 122.408C58.4476 122.408 49.6424 120.106 45.3239 116.745C45.3239 115.598 45.2483 114.284 45.139 112.838C49.3862 116.279 58.3005 118.648 68.6096 118.648C81.4182 118.648 92.0718 114.989 94.2983 110.167C94.3887 110.36 94.4659 110.559 94.5293 110.763Z" fill="#A0001F"/>
</g>
<path d="M36.2077 159.985C36.1229 159.783 36.0217 159.588 35.9052 159.402H35.9598C34.813 157.053 34.1198 154.537 33.2292 152.084C32.7939 150.853 32.4293 149.6 32.137 148.328L31.1539 144.547C30.1541 139.426 29.3181 134.225 29.2173 128.962C29.0325 126.332 29.2173 123.702 29.2173 121.06C29.419 118.434 29.5828 115.792 29.9819 113.179C30.6818 107.933 31.8703 102.765 33.5317 97.7403C33.7675 97.0477 33.7342 96.2917 33.4385 95.6224C33.1428 94.9532 32.6062 94.4195 31.9353 94.1275C31.5873 93.9769 31.2118 93.9 30.8325 93.9018C30.4532 93.9036 30.0785 93.984 29.7319 94.1379C29.3852 94.2919 29.0743 94.5161 28.8187 94.7963C28.5631 95.0765 28.3684 95.4066 28.2469 95.7659C26.2143 101.058 24.6785 106.527 23.6595 112.103C23.105 114.88 22.7857 117.695 22.437 120.505C22.2606 123.328 21.9581 126.16 22.0169 129.004C21.8531 134.708 22.4706 140.384 23.3108 146.051L24.1804 150.252C24.4357 151.66 24.7681 153.052 25.176 154.423C26.0162 157.158 26.6674 159.969 27.789 162.611C27.8459 162.845 27.9188 163.076 28.0074 163.3C28.9863 165.686 31.5698 166.778 33.7795 165.745C35.9892 164.712 37.0814 162.115 36.2077 159.985Z" fill="#F9B800"/>
<path d="M33.8891 165.665C34.4627 165.06 34.8535 164.305 35.0163 163.487C35.1791 162.67 35.1072 161.823 34.8091 161.044C34.7243 160.842 34.6231 160.646 34.5066 160.46L34.5612 160.439C33.4144 158.087 32.7212 155.57 31.8306 153.121C31.394 151.892 31.0293 150.638 30.7384 149.366L29.7554 145.585C28.7555 140.464 27.9196 135.263 27.8145 129.999C27.6339 127.369 27.8145 124.736 27.8145 122.097C28.0204 119.472 28.1842 116.829 28.5833 114.216C29.28 108.978 30.4642 103.817 32.1205 98.799C32.3519 98.1075 32.3155 97.3544 32.0183 96.6885C31.7212 96.0226 31.185 95.4925 30.5157 95.203C30.2159 95.0604 29.8908 94.9785 29.5592 94.9619C29.2275 94.9453 28.8959 94.9944 28.5833 95.1064C28.9359 94.5776 29.4641 94.1906 30.0745 94.0137C30.6849 93.8369 31.3382 93.8817 31.9188 94.1402C32.5906 94.4282 33.1294 94.9584 33.4282 95.6253C33.7271 96.2923 33.7641 97.0473 33.532 97.7403C31.8781 102.757 30.6939 107.917 29.9948 113.154C29.5999 115.771 29.4319 118.409 29.2302 121.039C29.1966 123.677 29.0328 126.311 29.2302 128.936C29.3311 134.204 30.1671 139.401 31.1711 144.526L32.1541 148.307C32.443 149.579 32.8063 150.833 33.2421 152.063C34.1369 154.516 34.8259 157.032 35.9727 159.385L35.9181 159.406C36.0347 159.592 36.1358 159.787 36.2206 159.99C37.0692 162.082 36.0274 164.602 33.8891 165.665Z" fill="#F8CE00"/>
<g style="mix-blend-mode:multiply" opacity="0.4">
<g style="mix-blend-mode:multiply" opacity="0.4">
<path d="M33.7042 165.753C31.5155 166.728 28.9949 165.636 28.0119 163.275C27.9214 163.051 27.8484 162.821 27.7935 162.586C26.6718 159.948 26.0207 157.125 25.1805 154.402C24.7719 153.038 24.4381 151.653 24.1807 150.252L23.3069 146.051C22.4667 140.401 21.8533 134.708 22.0088 129.025C21.9542 126.181 22.2524 123.349 22.4289 120.522C22.7776 117.707 23.0926 114.897 23.6513 112.12C24.6688 106.538 26.206 101.062 28.243 95.7659C28.3639 95.4057 28.5584 95.0746 28.8142 94.7937C29.07 94.5128 29.3814 94.2881 29.7287 94.134C30.076 93.98 30.4515 93.8998 30.8314 93.8987C31.2114 93.8976 31.5874 93.9755 31.9356 94.1275C32.138 94.2253 32.3307 94.342 32.5111 94.4762C32.0837 94.8084 31.7601 95.2559 31.5785 95.7659C29.544 101.057 28.0082 106.527 26.9911 112.103C26.4324 114.88 26.1173 117.691 25.7686 120.505C25.588 123.332 25.2897 126.164 25.3485 129.008C25.1931 134.696 25.8106 140.384 26.6508 146.034L27.5204 150.235C27.7757 151.643 28.1081 153.035 28.516 154.407C29.3562 157.141 30.0073 159.952 31.129 162.59C31.1839 162.825 31.257 163.055 31.3474 163.279C31.7809 164.379 32.6264 165.267 33.7042 165.753Z" fill="#F9B800"/>
</g>
</g>
<path d="M49.3651 83.1673C50.0624 91.8044 35.4138 106.163 35.4138 106.163L22.6304 96.081C22.6304 96.081 33.2503 81.4618 37.9217 77.7481C42.3369 74.2404 49.071 79.5335 49.3651 83.1673Z" fill="#B30026"/>
<path d="M43.8703 96.2616C45.6389 92.6698 46.6724 88.6621 46.0926 84.499C45.8616 82.9274 45.3158 81.4187 44.4878 80.0631C43.6599 78.7074 42.5668 77.5329 41.2742 76.6097C45.1264 76.6097 49.1383 80.3905 49.3652 83.1715C49.676 86.9944 46.979 91.9389 43.8703 96.2616Z" fill="#B30026"/>
<path d="M43.8703 96.2616C45.6389 92.6698 46.6724 88.6621 46.0926 84.499C45.8616 82.9274 45.3158 81.4187 44.4878 80.0631C43.6599 78.7074 42.5668 77.5329 41.2742 76.6097C45.1264 76.6097 49.1383 80.3905 49.3652 83.1715C49.676 86.9944 46.979 91.9389 43.8703 96.2616Z" fill="#C5002D"/>
<g style="mix-blend-mode:multiply" opacity="0.4">
<g style="mix-blend-mode:multiply" opacity="0.4">
<path d="M36.506 101.425L38.4469 102.954C36.6783 104.924 35.4138 106.163 35.4138 106.163L22.6304 96.081C22.6304 96.081 33.2503 81.4617 37.9175 77.7481C38.2728 77.4674 38.6625 77.233 39.077 77.0508C37.6781 78.6513 36.2036 80.4535 34.8047 82.2095C31.0658 86.9314 31.7716 97.6941 36.506 101.425Z" fill="#B30026"/>
</g>
</g>
<path d="M86.2913 59.5707C84.6829 59.8722 83.0304 59.8493 81.4309 59.5035C79.8598 59.1484 78.3875 58.4481 77.1207 57.4534C76.8014 57.2182 76.5074 56.9409 76.2091 56.6805C75.9108 56.42 75.6294 56.126 75.3689 55.8403C74.9777 55.4131 74.6143 54.9613 74.2809 54.4876C75.0643 54.0801 75.8975 53.7764 76.7594 53.5844C71.7813 51.904 71.1218 54.6178 72.1384 57.3652C72.3694 56.6367 72.7309 55.9563 73.2054 55.3572C73.5956 55.835 74.0166 56.2869 74.4657 56.7099C74.7682 57.0208 75.1127 57.2938 75.4361 57.5795C75.7596 57.8651 76.1209 58.113 76.4906 58.3482C77.9316 59.3204 79.5699 59.9616 81.288 60.2261C82.9787 60.4701 84.7011 60.3744 86.3543 59.9446C87.986 59.5344 89.5349 58.8467 90.9333 57.9113C89.4925 58.7263 87.9223 59.2876 86.2913 59.5707Z" fill="#5E0016"/>
<path d="M87.7029 107.823L86.4006 107.789C86.4449 103.567 85.8327 99.3632 84.5858 95.329L85.8839 95.3626C87.1322 99.3966 87.7458 103.6 87.7029 107.823Z" fill="#8A001C"/>
<path d="M83.5731 103.827L82.275 103.794H82.0229L83.3252 103.827H83.5731Z" fill="#858585"/>
<path d="M82.2078 98.9376L80.9055 98.904C81.2416 96.5375 81.6799 94.185 82.2204 91.8464L83.5227 91.8801C82.9794 94.2186 82.5411 96.5711 82.2078 98.9376Z" fill="#8A001C"/>
<path d="M81.0233 103.92L79.721 103.886C78.9955 101.154 78.0774 98.4773 76.9736 95.8751L78.2759 95.9087C79.3778 98.5117 80.2958 101.189 81.0233 103.92Z" fill="#8A001C"/>
<path d="M87.3878 91.691L86.0855 91.6574C85.6654 91.6574 85.2453 91.6574 84.8252 91.6574H84.6866H84.3967C83.6615 91.6868 82.9306 91.7456 82.208 91.838L83.5103 91.8716C84.2329 91.7834 84.9638 91.7204 85.699 91.691H86.1191C86.5476 91.6826 86.9677 91.6784 87.3878 91.691Z" fill="#D80034"/>
<path d="M78.5951 91.9557C78.175 91.9557 77.7549 91.9557 77.3558 91.9557H77.213H76.9231C73.8641 92.0802 70.8497 92.7326 68.0129 93.8839L69.3152 93.9175C72.1531 92.7697 75.1669 92.1175 78.2254 91.9893H78.6455C79.0656 91.9893 79.4857 91.9893 79.8848 91.9893L78.5951 91.9557Z" fill="#D80034"/>
<path d="M77.0155 108.243L75.7132 108.209C73.5522 103.225 70.9764 98.4321 68.0129 93.8797L69.3152 93.9133C72.2747 98.4681 74.8503 103.261 77.0155 108.243Z" fill="#8A001C"/>
<path d="M85.7073 91.6994C88.7575 91.5851 91.8041 92.0045 94.7099 92.9387C91.9729 97.701 89.6294 102.679 87.7028 107.823C87.7457 103.6 87.132 99.3966 85.8838 95.3626C84.9323 98.1259 84.1605 100.948 83.5733 103.811C83.128 103.811 82.6827 103.79 82.2374 103.811C81.7921 103.832 81.4266 103.857 81.0233 103.903C80.2958 101.172 79.3777 98.4949 78.2759 95.8919C77.2253 99.9185 76.8002 104.083 77.0156 108.238C74.8523 103.263 72.2795 98.4756 69.3237 93.9259C72.1616 92.7781 75.1754 92.1259 78.2339 91.9977C78.9607 91.9683 79.6832 91.9725 80.4058 91.9977C80.7881 92.8379 82.1996 98.5805 82.2164 98.9292C82.5524 96.5655 82.9907 94.213 83.5313 91.8716C84.2454 91.7918 84.9764 91.7288 85.7073 91.6994Z" fill="#F0F0F0"/>
<path d="M59.2121 19.267C57.8636 19.2334 56.2378 19.1704 55.4312 18.2798C54.7969 17.5741 55.07 16.6246 55.8009 16.0911C56.5319 15.5576 57.6031 15.3644 58.6534 15.2509C62.5227 14.9554 66.3946 15.7902 69.7984 17.6539C70.9201 18.2798 76.1922 21.2079 74.2892 22.3715C73.2096 23.0311 71.4284 21.8758 70.4033 21.4809C68.7121 20.8379 66.9733 20.3281 65.2026 19.956C63.2307 19.5459 61.2256 19.3153 59.2121 19.267Z" fill="black"/>
<path d="M67.1687 32.2059C70.5714 32.1134 73.6549 32.6764 75.8268 33.6552C75.9492 33.247 75.9962 32.8199 75.9654 32.3949C75.7175 29.5005 71.7645 27.4714 67.1435 27.8663C62.5224 28.2612 58.9558 30.9246 59.2037 33.8232C61.7309 32.7798 64.4347 32.2308 67.1687 32.2059Z" fill="#A0001F"/>
<path d="M92.5211 33.2057C89.7359 33.3653 87.2616 34.0459 85.5518 34.9911C85.4255 34.6683 85.3586 34.3253 85.3544 33.9787C85.3544 31.5967 88.4421 29.6685 92.2481 29.6685C96.0541 29.6685 99.1502 31.5967 99.1502 33.9787C97.0103 33.2992 94.7599 33.0368 92.5211 33.2057Z" fill="#A0001F"/>
<path d="M97.113 23.8292C98.0792 23.7452 99.2386 23.6276 99.4655 22.989C99.6503 22.4765 99.0748 21.838 98.3354 21.5061C97.5733 21.2078 96.7591 21.065 95.9409 21.086C93.0549 21.0356 90.4503 21.8296 88.7783 23.2285C88.207 23.7074 85.5268 25.9507 87.371 26.6606C88.4087 27.0807 89.253 26.1943 89.8454 25.8793C90.8595 25.3515 91.9251 24.9292 93.0255 24.619C94.3587 24.222 95.7278 23.9575 97.113 23.8292Z" fill="black"/>
<path d="M93.5841 43.7584L87.8288 51.0302C84.4681 55.2816 77.9188 53.0593 77.2719 48.3458C77.2149 47.8855 77.2149 47.4199 77.2719 46.9595C77.2699 46.9189 77.2699 46.8783 77.2719 46.8377C77.2836 46.7078 77.3032 46.5787 77.3307 46.4512C77.3307 46.4092 77.3307 46.3672 77.3307 46.3252C77.3357 46.2953 77.3427 46.2659 77.3517 46.237L77.4021 46.0311C77.4021 45.9597 77.4399 45.8967 77.4609 45.8295C77.4819 45.7623 77.503 45.695 77.5282 45.6278C77.5534 45.5606 77.5702 45.5144 77.5954 45.4598L77.671 45.2918C77.7494 45.1328 77.8437 44.9822 77.9524 44.8423C78.0482 44.7206 78.1521 44.6055 78.2633 44.4978L78.4398 44.3339C78.6991 44.117 78.9807 43.9283 79.2799 43.771C79.4334 43.682 79.5919 43.6021 79.7546 43.5316C81.7837 42.62 84.7958 42.3889 87.5138 42.4225H87.8876C88.3792 42.4225 88.8581 42.4519 89.3202 42.4729L89.7403 42.4981L90.1603 42.5233L90.9543 42.5822C91.534 42.6284 92.0592 42.6788 92.5129 42.7292L92.8783 42.7712L93.1976 42.809C93.3037 42.82 93.4036 42.8641 93.4833 42.935C93.5443 42.9823 93.5953 43.0411 93.6334 43.1082C93.6715 43.1752 93.6959 43.2492 93.7053 43.3257C93.7147 43.4023 93.7088 43.4799 93.688 43.5542C93.6672 43.6285 93.6319 43.6979 93.5841 43.7584Z" fill="#F9B800"/>
<path d="M93.4959 42.9392C90.6098 42.9392 80.0529 43.2207 77.629 47.3754C77.4598 47.6782 77.3393 48.0056 77.2719 48.3458C77.2401 48.4844 77.2163 48.6247 77.2005 48.7659C77.1738 48.1704 77.1907 47.5736 77.2509 46.9805C77.2488 46.9399 77.2488 46.8993 77.2509 46.8587C77.264 46.729 77.2836 46.6 77.3097 46.4722C77.3097 46.4008 77.3349 46.3294 77.3517 46.258L77.4021 46.0521C77.4021 45.9807 77.4399 45.9177 77.4609 45.8505C77.4819 45.7833 77.5029 45.7161 77.5281 45.6488C77.5533 45.5816 77.5701 45.5354 77.5954 45.4808L77.671 45.3128C77.7494 45.1538 77.8437 45.0032 77.9524 44.8633C78.0482 44.7416 78.152 44.6265 78.2633 44.5188L78.4397 44.355C78.7012 44.1409 78.9825 43.9524 79.2799 43.792C79.4312 43.708 79.5866 43.6282 79.7546 43.5526C81.7837 42.641 84.7957 42.4099 87.5137 42.4435H87.8876C88.3791 42.4435 88.858 42.4729 89.3201 42.4939L89.7402 42.5191L90.1603 42.5444L90.9543 42.6032C91.534 42.6494 92.0591 42.6998 92.5128 42.7502L92.8783 42.7922L93.1976 42.83C93.3061 42.8336 93.4107 42.8719 93.4959 42.9392Z" fill="#F8CE00"/>
<path d="M46.4244 185.241C46.4244 185.884 46.4875 209.094 46.4622 217.013C46.4505 217.795 46.7209 218.555 47.2239 219.154C47.727 219.752 48.429 220.15 49.2013 220.273H65.8663C66.8184 220.328 67.7588 220.04 68.516 219.46C69.2732 218.88 69.7969 218.047 69.9916 217.114C70.0998 216.63 70.1045 216.129 70.0056 215.643C69.9067 215.158 69.7064 214.698 69.4177 214.295C69.129 213.892 68.7584 213.555 68.3303 213.305C67.9022 213.055 67.4262 212.899 66.9334 212.846L62.1401 212.316C61.3086 212.231 60.5437 211.823 60.0102 211.18C59.4767 210.536 59.2173 209.709 59.2877 208.876C59.7498 202.154 60.968 187.065 61.0479 185.25C56.5571 185.174 50.7766 185.46 46.4244 185.241Z" fill="black"/>
<path d="M70.0714 216.349C70.0715 216.606 70.0447 216.862 69.9916 217.114C69.8491 217.796 69.5306 218.429 69.0678 218.95C68.605 219.471 68.014 219.862 67.3534 220.084C67.639 219.662 67.8388 219.188 67.9415 218.689C67.9947 218.439 68.0214 218.184 68.0214 217.929C68.0291 217.058 67.7116 216.216 67.1312 215.568C66.5508 214.919 65.7492 214.51 64.8833 214.421L60.0816 213.892C59.2509 213.805 58.4874 213.396 57.9543 212.753C57.4212 212.11 57.161 211.284 57.2292 210.451C57.5695 205.557 58.313 196.189 58.7163 190.782C58.7542 190.278 58.682 189.772 58.5047 189.299C58.3274 188.825 58.0493 188.396 57.6896 188.041C57.33 187.685 56.8974 187.413 56.4218 187.241C55.9462 187.07 55.4391 187.004 54.9355 187.048C52.1251 187.287 49.1592 187.468 46.4076 186.363C46.4076 185.712 46.4076 185.317 46.4076 185.241C50.764 185.46 56.5402 185.174 61.031 185.241C60.9596 187.056 59.7371 202.159 59.275 208.867C59.2057 209.699 59.4649 210.526 59.9974 211.169C60.5298 211.812 61.2929 212.221 62.1233 212.308L66.9333 212.846C67.7989 212.934 68.6005 213.342 69.181 213.99C69.7615 214.638 70.079 215.479 70.0714 216.349Z" fill="#1A1A1A"/>
<path d="M74.9446 185.241C74.995 185.884 76.2595 209.094 76.646 217.013C76.6846 217.808 76.9949 218.565 77.5247 219.158C78.0546 219.751 78.7721 220.145 79.5572 220.273H96.2097C97.1469 220.342 98.0757 220.055 98.8107 219.469C99.5458 218.884 100.033 218.043 100.175 217.114C100.251 216.617 100.225 216.111 100.1 215.624C99.9753 215.138 99.7533 214.682 99.4477 214.283C99.1421 213.885 98.7592 213.552 98.3219 213.305C97.8846 213.058 97.4019 212.902 96.9028 212.846L92.076 212.316C91.2332 212.223 90.4555 211.819 89.8953 211.183C89.335 210.546 89.0325 209.724 89.0471 208.876C89.1605 202.154 89.5932 187.065 89.5722 185.25C85.0772 185.174 79.3093 185.46 74.9446 185.241Z" fill="black"/>
<path d="M74.9446 185.241C74.995 185.884 76.2595 209.094 76.646 217.013C76.6846 217.808 76.9949 218.565 77.5247 219.158C78.0546 219.751 78.7721 220.145 79.5572 220.273H96.2097C97.1469 220.342 98.0757 220.055 98.8107 219.469C99.5458 218.884 100.033 218.043 100.175 217.114C100.251 216.617 100.225 216.111 100.1 215.624C99.9753 215.138 99.7533 214.682 99.4477 214.283C99.1421 213.885 98.7592 213.552 98.3219 213.305C97.8846 213.058 97.4019 212.902 96.9028 212.846L92.076 212.316C91.2332 212.223 90.4555 211.819 89.8953 211.183C89.335 210.546 89.0325 209.724 89.0471 208.876C89.1605 202.154 89.5932 187.065 89.5722 185.25C85.0772 185.174 79.3093 185.46 74.9446 185.241Z" fill="black"/>
<path d="M100.226 216.547C100.226 216.737 100.212 216.926 100.184 217.114C100.087 217.756 99.8239 218.362 99.4208 218.871C99.0177 219.38 98.4886 219.775 97.8858 220.017C98.1254 219.608 98.2851 219.158 98.3563 218.689C98.385 218.502 98.399 218.312 98.3984 218.122C98.3966 217.204 98.0567 216.32 97.4437 215.637C96.8307 214.954 95.9875 214.521 95.0754 214.421L90.2528 213.892C89.4104 213.8 88.6327 213.396 88.0724 212.761C87.5121 212.125 87.2094 211.303 87.2239 210.455C87.3037 205.612 87.5516 196.399 87.6734 190.963C87.6865 190.426 87.5907 189.891 87.3916 189.392C87.1926 188.893 86.8944 188.439 86.5152 188.058C86.1359 187.678 85.6834 187.378 85.185 187.176C84.6866 186.975 84.1526 186.877 83.6153 186.888C80.7377 186.947 77.713 186.913 74.9908 185.977C74.9656 185.557 74.9488 185.3 74.9446 185.241C79.3135 185.46 85.0772 185.174 89.5722 185.241C89.5932 187.056 89.1521 202.159 89.0471 208.867C89.0336 209.716 89.337 210.538 89.8979 211.175C90.4589 211.811 91.237 212.215 92.0802 212.308L96.9028 212.846C97.8149 212.946 98.6581 213.379 99.2711 214.062C99.8841 214.744 100.224 215.629 100.226 216.547Z" fill="#1A1A1A"/>
</svg>
